<?xml version="1.0" standalone="no"?>
<!DOCTYPE svg PUBLIC "-//W3C//DTD SVG 1.1//EN" "http://www.w3.org/Graphics/SVG/1.1/DTD/svg11.dtd" >
<svg xmlns="http://www.w3.org/2000/svg" xmlns:xlink="http://www.w3.org/1999/xlink" version="1.1">
<metadata>
Created by FontForge 20170910 at Sat Oct 31 20:02:14 2015
 By Jimmy Wärting
Copyright (c) 2010, 2011 by Daniel Johnson. Released under the terms of the SIL Open Font License.
</metadata>
<defs>
<font id="DidactGothic" horiz-adv-x="574" >
  <font-face 
    font-family="Didact Gothic"
    font-weight="500"
    font-stretch="normal"
    units-per-em="1024"
    panose-1="2 0 6 3 0 0 0 0 0 0"
    ascent="819"
    descent="-205"
    x-height="479"
    cap-height="698"
    bbox="-495 -205 930 969"
    underline-thickness="50"
    underline-position="-149"
    unicode-range="U+0020-04FF"
  />
<missing-glyph horiz-adv-x="512" 
d="M51 0v546h410v-546h-410zM102 51h308v444h-308v-444z" />
    <glyph glyph-name=".notdef" horiz-adv-x="512" 
d="M51 0v546h410v-546h-410zM102 51h308v444h-308v-444z" />
    <glyph glyph-name=".null" horiz-adv-x="0" 
 />
    <glyph glyph-name="nonmarkingreturn" horiz-adv-x="341" 
 />
    <glyph glyph-name="space" unicode=" " horiz-adv-x="228" 
 />
    <glyph glyph-name="exclam" unicode="!" horiz-adv-x="238" 
d="M65 48q0 23 16 39t39 16t39 -16t16 -39t-16 -39.5t-39 -16.5t-39 16.5t-16 39.5zM84 170v528h70v-528h-70z" />
    <glyph glyph-name="quotedbl" unicode="&#x22;" horiz-adv-x="337" 
d="M208 434v264h70v-264h-70zM60 434v264h70v-264h-70z" />
    <glyph glyph-name="numbersign" unicode="#" horiz-adv-x="552" 
d="M155 490l10 168h68l-10 -168h127l10 168h70l-10 -168h93v-70h-98l-12 -180h90v-70h-94l-11 -170h-70l12 170h-127l-12 -170h-68l11 170h-94v70h98l12 180h-90v70h95zM218 420l-11 -180h127l11 180h-127z" />
    <glyph glyph-name="dollar" unicode="$" horiz-adv-x="485" 
d="M219 698h42v-101q126 -5 172 -113l-62 -31q-30 75 -110 79v-156q37 -6 65 -14t59 -23.5t47.5 -41.5t16.5 -61q0 -63 -53.5 -103.5t-134.5 -46.5v-86h-42v85q-64 2 -112.5 31.5t-70.5 81.5l62 31q13 -33 45 -54.5t76 -24.5v163q-26 5 -45.5 10t-44.5 15.5t-41 24t-27 35
t-11 48.5q0 63 46.5 103t122.5 47v102zM219 383v148q-48 -6 -73 -28.5t-25 -56.5q0 -29 26 -42.5t72 -20.5zM261 305v-154q53 5 85.5 29t32.5 56q0 18 -9.5 30.5t-32 20t-34.5 10.5t-42 8z" />
    <glyph glyph-name="percent" unicode="%" horiz-adv-x="543" 
d="M84 434q0 -20 14 -34t34 -14t34 14t14 34t-14 34t-34 14t-34 -14t-14 -34zM40 434q0 38 27 65t65 27t65 -27t27 -65t-27 -65t-65 -27t-65 27t-27 65zM364 98q0 -20 14 -34t34 -14t34 14t14 34t-14 34t-34 14t-34 -14t-14 -34zM319 98q0 38 27.5 65t65.5 27t65 -27t27 -65
t-27 -65t-65 -27t-65.5 27t-27.5 65zM50 41l406 483l38 -34l-406 -482z" />
    <glyph glyph-name="ampersand" unicode="&#x26;" horiz-adv-x="548" 
d="M215 457q75 80 75 133q0 21 -17 35.5t-35 14.5q-19 0 -41.5 -17.5t-22.5 -38.5q0 -62 41 -127zM446 126l89 -126h-94l-43 61q-70 -73 -167 -73q-83 0 -141.5 61t-58.5 147q0 34 21 72t44 64t65 68l-26 37q-39 55 -39 149q0 56 43.5 90t98.5 34q54 0 92 -30.5t38 -87.5
q0 -81 -112 -195l139 -198q26 57 42 128l77 -17q-18 -101 -68 -184zM202 343q-46 -47 -69.5 -80.5t-23.5 -64.5q0 -58 35.5 -99t86.5 -41q66 0 121 70z" />
    <glyph glyph-name="quotesingle" unicode="'" horiz-adv-x="190" 
d="M60 434v264h70v-264h-70z" />
    <glyph glyph-name="parenleft" unicode="(" horiz-adv-x="240" 
d="M199 644q-27 -15 -52 -101.5t-25 -194.5t25 -193.5t52 -100.5v-70q-70 0 -112.5 105.5t-42.5 258.5t42.5 259.5t112.5 106.5v-70z" />
    <glyph glyph-name="parenright" unicode=")" horiz-adv-x="240" 
d="M42 54q27 15 52 101.5t25 194.5t-25 193.5t-52 100.5v70q70 0 112.5 -105.5t42.5 -258.5t-42.5 -259.5t-112.5 -106.5v70z" />
    <glyph glyph-name="asterisk" unicode="*" horiz-adv-x="356" 
d="M221 605h88v-48h-89l45 -78l-42 -24l-44 76l-45 -76l-42 24l45 78h-90v48h89l-44 77l42 24l45 -77l44 77l42 -24z" />
    <glyph glyph-name="plus" unicode="+" horiz-adv-x="453" 
d="M199 218h-160v56h160v160h56v-160h160v-56h-160v-160h-56v160z" />
    <glyph glyph-name="comma" unicode="," horiz-adv-x="209" 
d="M49 48q0 23 16 39t39 16t39.5 -16t16.5 -39q0 -35 -9.5 -65.5t-23 -49.5t-27.5 -33q-12 -12 -22 -18l-10 -6l-18 10q39 39 54 106q-23 0 -39 16.5t-16 39.5z" />
    <glyph glyph-name="hyphen" unicode="-" horiz-adv-x="340" 
d="M57 274h227v-56h-227v56z" />
    <glyph glyph-name="period" unicode="." horiz-adv-x="208" 
d="M49 48q0 23 16 39t39 16t39.5 -16t16.5 -39t-16.5 -39.5t-39.5 -16.5t-39 16.5t-16 39.5z" />
    <glyph glyph-name="slash" unicode="/" horiz-adv-x="386" 
d="M352 698l-254 -698h-63l254 698h63z" />
    <glyph glyph-name="zero" unicode="0" 
d="M109 349q0 -126 51 -214t118 -88t117 88t50 214t-50 213.5t-117 87.5t-118 -87.5t-51 -213.5zM40 349q0 165 72 265t166 100t165.5 -99.5t71.5 -265.5t-71 -265.5t-165 -99.5q-95 0 -167 100t-72 265z" />
    <glyph glyph-name="one" unicode="1" 
d="M392 0h-76v526l-110 -104l-43 16l153 260h76v-698z" />
    <glyph glyph-name="two" unicode="2" 
d="M492 70v-70h-420v44q0 71 54 142t152 149q70 57 99 96.5t29 92.5q0 120 -134 120q-49 0 -81 -23t-71 -75l-57 48q49 64 96 92t113 28q98 0 155 -49.5t57 -140.5q0 -70 -37.5 -124t-134.5 -126q-58 -42 -103 -97.5t-56 -106.5h339z" />
    <glyph glyph-name="three" unicode="3" 
d="M360 385q142 -59 142 -195q0 -98 -76.5 -152t-175.5 -54q-52 0 -107.5 27t-89.5 70l55 43q23 -33 62.5 -52t79.5 -19q76 0 125.5 32t49.5 105q0 45 -21 77.5t-56 48.5t-69.5 22.5t-72.5 6.5v69q72 0 133.5 33.5t61.5 86.5q0 49 -32.5 80t-93.5 31q-77 0 -125 -67l-56 43
q34 43 84 68t97 25q85 0 144 -49.5t59 -130.5q0 -44 -32.5 -83t-85.5 -66z" />
    <glyph glyph-name="four" unicode="4" 
d="M365 580l-228 -324h228v324zM365 698h76v-442h69v-76h-69v-180h-76v180h-310v76z" />
    <glyph glyph-name="five" unicode="5" 
d="M47 76l54 38q52 -67 164 -67q75 0 124.5 53t49.5 125q0 79 -43 128t-126 49q-51 0 -86 -5.5t-48 -11t-48 -21.5v334h354v-70h-278v-174q57 12 106 12q116 0 177 -61t61 -180q0 -107 -66 -174t-179 -67q-142 0 -216 92z" />
    <glyph glyph-name="six" unicode="6" 
d="M515 230q0 -103 -73.5 -174.5t-165.5 -71.5t-164 71.5t-72 174.5q0 101 22.5 183.5t58.5 136t84 91t95.5 54t95.5 19.5v-66q-196 -28 -259 -223q65 51 141 51q92 0 164.5 -71.5t72.5 -174.5zM446 230q0 78 -50 130t-118 52t-118 -52t-50 -130t50 -130.5t118 -52.5
t118 52.5t50 130.5z" />
    <glyph glyph-name="seven" unicode="7" 
d="M67 628v70h421l-237 -698h-83l214 628h-315z" />
    <glyph glyph-name="eight" unicode="8" 
d="M114 200q0 -75 46 -111.5t118 -36.5q71 0 116.5 36.5t45.5 111.5t-45 111t-117 36t-118 -36t-46 -111zM70 531q0 87 63 135t145 48t144.5 -48t62.5 -135q0 -95 -79 -147q109 -61 109 -184q0 -100 -70.5 -158t-165.5 -58q-96 0 -167.5 58t-71.5 158q0 123 110 184
q-80 52 -80 147zM278 416q60 0 96 28t36 87t-36 86.5t-96 27.5t-97 -27.5t-37 -86.5q0 -58 37.5 -86.5t96.5 -28.5z" />
    <glyph glyph-name="nine" unicode="9" 
d="M40 468q0 103 73.5 174.5t165.5 71.5t164 -71.5t72 -174.5q0 -101 -22.5 -183.5t-58.5 -136t-84 -91t-95.5 -54t-95.5 -19.5v66q198 28 260 222q-64 -50 -141 -50q-92 0 -165 71.5t-73 174.5zM109 468q0 -78 50.5 -130t118.5 -52t117.5 52t49.5 130t-49.5 130.5
t-117.5 52.5t-118.5 -52.5t-50.5 -130.5z" />
    <glyph glyph-name="colon" unicode=":" horiz-adv-x="225" 
d="M57 48q0 23 16.5 39t39.5 16t39 -16t16 -39t-16 -39.5t-39 -16.5t-39.5 16.5t-16.5 39.5zM57 428q0 23 16.5 39t39.5 16t39 -16t16 -39t-16 -39.5t-39 -16.5t-39.5 16.5t-16.5 39.5z" />
    <glyph glyph-name="semicolon" unicode=";" horiz-adv-x="225" 
d="M57 428q0 23 16.5 39t39.5 16t39 -16t16 -39t-16 -39.5t-39 -16.5t-39.5 16.5t-16.5 39.5zM57 48q0 23 16.5 39t39.5 16t39 -16t16 -39q0 -35 -9.5 -65.5t-23 -49.5t-27.5 -33q-12 -12 -22 -18l-10 -6l-18 10q40 39 55 106q-23 0 -39.5 16.5t-16.5 39.5z" />
    <glyph glyph-name="less" unicode="&#x3c;" horiz-adv-x="492" 
d="M27 292l367 308l45 -54l-303 -254l303 -254l-45 -54z" />
    <glyph glyph-name="equal" unicode="=" horiz-adv-x="408" 
d="M67 330h275v-56h-275v56zM67 218h275v-56h-275v56z" />
    <glyph glyph-name="greater" unicode="&#x3e;" horiz-adv-x="492" 
d="M466 292l-368 -308l-45 54l303 254l-303 254l45 54z" />
    <glyph glyph-name="question" unicode="?" horiz-adv-x="472" 
d="M159 48q0 23 16 39t39 16t39.5 -16t16.5 -39t-16.5 -39.5t-39.5 -16.5t-39 16.5t-16 39.5zM30 572q23 64 77 103t117 39q88 0 148 -57t60 -141q0 -47 -13.5 -83t-33.5 -56.5t-44 -42.5t-44 -40.5t-33.5 -50.5t-13.5 -73h-70q0 47 13.5 83t33.5 56.5t44 42.5t44 40.5
t33.5 50.5t13.5 73q0 58 -37 96t-101 38q-46 0 -80.5 -25.5t-49.5 -72.5z" />
    <glyph glyph-name="at" unicode="@" horiz-adv-x="769" 
d="M384 56q-80 0 -122.5 61t-42.5 168q0 105 42 164t121 59q57 0 99 -39v21h64v-299q0 -32 17.5 -48t34.5 -16q31 0 49 46.5t18 120.5q0 168 -69.5 261t-212.5 93q-96 0 -183.5 -99.5t-87.5 -229.5q0 -186 83 -295.5t225 -109.5q60 0 135 27l28 -60q-87 -31 -163 -31
q-169 0 -273.5 127t-104.5 339q0 79 31 153.5t80 127t110 84t120 31.5q174 0 263 -116t89 -318q0 -40 -7 -77t-22 -70.5t-42.5 -53.5t-65.5 -20q-73 0 -100 55q-44 -56 -113 -56zM481 282q0 66 -27 114t-72 48t-72.5 -48t-27.5 -114q0 -68 27 -115.5t73 -47.5q45 0 72 46.5
t27 116.5z" />
    <glyph glyph-name="A" unicode="A" horiz-adv-x="589" 
d="M336 696l254 -696h-82l-72 196h-282l-71 -196h-82l253 696v2h83zM295 584l-118 -325h237z" />
    <glyph glyph-name="B" unicode="B" horiz-adv-x="588" 
d="M81 0v698h207q90 0 152 -49t62 -126q0 -86 -77 -137q56 -24 90 -69.5t34 -111.5q0 -99 -72.5 -152t-170.5 -53h-225zM158 346v-283h146q69 0 115 37t46 105t-45.5 104.5t-115.5 36.5h-146zM158 634v-223h130q62 0 96 33.5t34 78.5q0 44 -34 77.5t-96 33.5h-130z" />
    <glyph glyph-name="C" unicode="C" horiz-adv-x="586" 
d="M559 147q-94 -163 -232 -163q-117 0 -199.5 107.5t-82.5 256.5t82.5 257.5t199.5 108.5q127 0 220 -144l-61 -43q-71 117 -159 117q-89 0 -146.5 -88t-57.5 -208t57 -207t147 -87q96 0 166 129z" />
    <glyph glyph-name="D" unicode="D" horiz-adv-x="624" 
d="M81 0v698h152q68 0 128.5 -21t110 -62t78.5 -110t29 -157t-29 -156.5t-78.5 -109.5t-110 -61.5t-128.5 -20.5h-152zM158 628v-558h53q137 0 212 68.5t75 209.5q0 142 -75 211t-212 69h-53z" />
    <glyph glyph-name="E" unicode="E" horiz-adv-x="515" 
d="M81 0v698h391v-64h-314v-223h245v-63h-245v-285h317v-63h-394z" />
    <glyph glyph-name="F" unicode="F" horiz-adv-x="490" 
d="M81 0v698h391v-64h-314v-223h245v-63h-245v-348h-77z" />
    <glyph glyph-name="G" unicode="G" horiz-adv-x="621" 
d="M337 298v63h241v-63q0 -165 -68.5 -239.5t-197.5 -74.5q-116 0 -191.5 106.5t-75.5 257.5t81 258.5t206 107.5q79 0 128.5 -35.5t96.5 -108.5l-61 -43q-35 58 -71 87.5t-93 29.5q-94 0 -151.5 -87.5t-57.5 -208.5q0 -122 50.5 -208t138.5 -86q46 0 76.5 8.5t58.5 33
t41.5 74.5t13.5 128h-165z" />
    <glyph glyph-name="H" unicode="H" horiz-adv-x="622" 
d="M81 0v698h77v-302h307v302h77v-698h-77v333h-307v-333h-77z" />
    <glyph glyph-name="I" unicode="I" horiz-adv-x="259" 
d="M168 631v-563h37v-68h-151v68h37v563h-37v67h151v-67h-37z" />
    <glyph glyph-name="J" unicode="J" horiz-adv-x="501" 
d="M77 161q15 -49 49.5 -77.5t81.5 -28.5q68 0 104.5 38.5t36.5 116.5v488h77v-488q0 -103 -62 -164.5t-154 -61.5q-63 0 -117 40.5t-81 105.5z" />
    <glyph glyph-name="K" unicode="K" horiz-adv-x="545" 
d="M81 0v698h77v-328l275 328h99l-260 -310l272 -388h-93l-230 328l-63 -76v-252h-77z" />
    <glyph glyph-name="L" unicode="L" horiz-adv-x="446" 
d="M81 0v698h77v-635h273v-63h-350z" />
    <glyph glyph-name="M" unicode="M" horiz-adv-x="812" 
d="M81 0v698h83l243 -597l241 597h83v-698h-76v515l-208 -515h-81l-208 514v-514h-77z" />
    <glyph glyph-name="N" unicode="N" horiz-adv-x="644" 
d="M81 0v698h77l329 -572v572h76v-698h-76l-329 570v-570h-77z" />
    <glyph glyph-name="O" unicode="O" horiz-adv-x="686" 
d="M124 348q0 -117 64 -205.5t155 -88.5t155 88.5t64 205.5q0 118 -64 207t-155 89t-155 -89t-64 -207zM43 348q0 147 90.5 256.5t209.5 109.5t209.5 -109.5t90.5 -256.5t-90.5 -255.5t-209.5 -108.5t-209.5 108.5t-90.5 255.5z" />
    <glyph glyph-name="P" unicode="P" horiz-adv-x="570" 
d="M81 0v698h223q98 0 171.5 -53t73.5 -152t-72.5 -152t-170.5 -53h-148v-288h-77zM158 634v-282h146q70 0 115.5 36.5t45.5 104.5t-45.5 104.5t-115.5 36.5h-146z" />
    <glyph glyph-name="Q" unicode="Q" horiz-adv-x="686" 
d="M43 348q0 147 90.5 256.5t209.5 109.5t209.5 -109.5t90.5 -256.5q0 -150 -94 -260l74 -74l-45 -44l-75 74q-74 -60 -160 -60q-119 0 -209.5 108.5t-90.5 255.5zM124 348q0 -117 64 -205.5t155 -88.5q61 0 110 40l-78 77l45 45l77 -76q65 86 65 208q0 118 -64 207t-155 89
t-155 -89t-64 -207z" />
    <glyph glyph-name="R" unicode="R" horiz-adv-x="594" 
d="M81 0v698h223q98 0 171.5 -53t73.5 -152q0 -78 -45.5 -127t-117.5 -68l172 -298h-85l-166 288h-1h-148v-288h-77zM158 634v-282h146q70 0 115.5 36.5t45.5 104.5t-45.5 104.5t-115.5 36.5h-146z" />
    <glyph glyph-name="S" unicode="S" horiz-adv-x="565" 
d="M285 314q-111 30 -169 78t-58 132q0 92 59 141t166 49q131 0 223 -120l-57 -48q-73 98 -166 98q-78 0 -112.5 -29t-34.5 -91q0 -24 7.5 -42.5t16.5 -29.5t29.5 -21.5t32.5 -15t40 -13t39 -12.5q103 -35 134 -53q91 -52 91 -163q0 -92 -68.5 -141t-188.5 -49
q-68 0 -131.5 39t-105.5 105l60 43q31 -52 78.5 -84.5t98.5 -32.5q92 0 136 29t44 91q0 60 -37 88t-127 52z" />
    <glyph glyph-name="T" unicode="T" horiz-adv-x="514" 
d="M19 635v63h476v-63h-200v-635h-76v635h-200z" />
    <glyph glyph-name="U" unicode="U" horiz-adv-x="650" 
d="M75 290v408h82v-408q0 -105 41 -170.5t128 -65.5t128 65.5t41 170.5v408h80v-408q0 -147 -65.5 -226.5t-183.5 -79.5q-119 0 -185 79.5t-66 226.5z" />
    <glyph glyph-name="V" unicode="V" horiz-adv-x="586" 
d="M252 1l-253 697h82l212 -584l213 584h82l-254 -697l1 -1h-83v1z" />
    <glyph glyph-name="W" unicode="W" horiz-adv-x="871" 
d="M288 0h-79l-186 698h78l148 -551l147 551h79l148 -550l147 550h79l-186 -698h-80l-148 551z" />
    <glyph glyph-name="X" unicode="X" horiz-adv-x="507" 
d="M297 357l190 -357h-86l-147 276l-146 -276h-86l189 357l-181 341h86l138 -261l139 261h86z" />
    <glyph glyph-name="Y" unicode="Y" horiz-adv-x="484" 
d="M243 442l153 256h89l-205 -343v-355h-76v358l-204 340h89z" />
    <glyph glyph-name="Z" unicode="Z" horiz-adv-x="515" 
d="M39 635v63h436v-76l-349 -559h349v-63h-436v65l355 570h-355z" />
    <glyph glyph-name="bracketleft" unicode="[" horiz-adv-x="265" 
d="M69 738h176v-40h-100v-698h100v-40h-176v778z" />
    <glyph glyph-name="backslash" unicode="\" horiz-adv-x="386" 
d="M34 698h63l254 -698h-63z" />
    <glyph glyph-name="bracketright" unicode="]" horiz-adv-x="265" 
d="M197 -40h-177v40h101v698h-101v40h177v-778z" />
    <glyph glyph-name="asciicircum" unicode="^" horiz-adv-x="489" 
d="M234 487l188 -250l-58 -42l-131 175l-131 -175l-56 42z" />
    <glyph glyph-name="underscore" unicode="_" horiz-adv-x="468" 
d="M0 -28h469v-60h-469v60z" />
    <glyph glyph-name="grave" unicode="`" horiz-adv-x="397" 
d="M296 581l-236 119l35 60l221 -145z" />
    <glyph glyph-name="a" unicode="a" 
d="M35 240q0 103 73 179.5t164 76.5q95 0 168 -80v63h70v-479h-70v62q-72 -78 -166 -78q-91 0 -165 76.5t-74 179.5zM104 240q0 -79 50.5 -136t117.5 -57t117.5 57t50.5 136t-50.5 135.5t-117.5 56.5t-117.5 -56.5t-50.5 -135.5z" />
    <glyph glyph-name="b" unicode="b" 
d="M134 65v-65h-69v743h69v-327q73 80 168 80q91 0 164.5 -76.5t73.5 -179.5q0 -104 -72.5 -180t-163.5 -76q-95 0 -170 81zM134 240q0 -79 50.5 -136t117.5 -57t117.5 57t50.5 136t-50.5 135.5t-117.5 56.5t-117.5 -56.5t-50.5 -135.5z" />
    <glyph glyph-name="c" unicode="c" horiz-adv-x="488" 
d="M465 76q-37 -46 -81 -69t-110 -23q-91 0 -165 76.5t-74 179.5t73 179.5t164 76.5q50 0 98.5 -26.5t83.5 -70.5l-52 -40q-52 73 -130 73q-67 0 -117.5 -56.5t-50.5 -135.5t50.5 -136t117.5 -57q53 0 82.5 16t56.5 51z" />
    <glyph glyph-name="d" unicode="d" 
d="M35 240q0 103 73 179.5t164 76.5q95 0 168 -80v327h70v-743h-70v62q-72 -78 -166 -78q-91 0 -165 76.5t-74 179.5zM104 240q0 -79 50.5 -136t117.5 -57t117.5 57t50.5 136t-50.5 135.5t-117.5 56.5t-117.5 -56.5t-50.5 -135.5z" />
    <glyph glyph-name="e" unicode="e" horiz-adv-x="538" 
d="M104 240q0 -79 50.5 -136t117.5 -57q73 0 106.5 20.5t60.5 66.5l56 -37q-37 -57 -86 -85t-135 -28q-91 0 -165 76.5t-74 179.5t73 179.5t164 76.5t164.5 -76.5t73.5 -179.5h-406zM115 303h315q-18 57 -62 93t-96 36t-95.5 -36t-61.5 -93z" />
    <glyph glyph-name="f" unicode="f" horiz-adv-x="282" 
d="M270 696h-28q-35 0 -58.5 -26t-23.5 -62v-129h110v-63h-110v-416h-70v416h-61v63h61v129q0 63 44.5 107.5t107.5 44.5h28v-64z" />
    <glyph glyph-name="g" unicode="g" 
d="M35 240q0 103 73 179.5t164 76.5q95 0 168 -80v63h70v-461q0 -112 -57.5 -167.5t-153.5 -55.5h-158v64h158q67 0 104 40.5t37 118.5v44q-72 -78 -166 -78q-91 0 -165 76.5t-74 179.5zM104 240q0 -79 50.5 -136t117.5 -57t117.5 57t50.5 136t-50.5 135.5t-117.5 56.5
t-117.5 -56.5t-50.5 -135.5z" />
    <glyph glyph-name="h" unicode="h" horiz-adv-x="547" 
d="M488 303v-303h-69v303q0 54 -39.5 91.5t-103.5 37.5t-103 -55t-39 -137v-240h-69v743h69v-308q59 61 142 61q92 0 152 -51.5t60 -141.5z" />
    <glyph glyph-name="i" unicode="i" horiz-adv-x="198" 
d="M44 628q0 23 16 39t39 16t39.5 -16t16.5 -39t-16.5 -39.5t-39.5 -16.5t-39 16.5t-16 39.5zM65 0v479h69v-479h-69z" />
    <glyph glyph-name="j" unicode="j" horiz-adv-x="198" 
d="M44 628q0 23 16 39t39 16t39.5 -16t16.5 -39t-16.5 -39.5t-39.5 -16.5t-39 16.5t-16 39.5zM-46 -141h29q35 0 58.5 26t23.5 62v532h69v-532q0 -63 -44 -107.5t-107 -44.5h-29v64z" />
    <glyph glyph-name="k" unicode="k" horiz-adv-x="446" 
d="M65 0v743h69v-454l190 190h100l-184 -184l198 -295h-85l-164 245l-55 -55v-190h-69z" />
    <glyph glyph-name="l" unicode="l" horiz-adv-x="208" 
d="M70 0v743h69v-743h-69z" />
    <glyph glyph-name="m" unicode="m" horiz-adv-x="788" 
d="M728 303v-303h-69v303q0 54 -32 91.5t-83 37.5t-82 -55t-31 -137v-240h-69v303q0 54 -32 91.5t-83 37.5t-82 -55t-31 -137v-240h-69v479h69v-36q50 53 113 53q48 0 90 -23t67 -65q25 42 62.5 65t77.5 23q75 0 129.5 -52.5t54.5 -140.5z" />
    <glyph glyph-name="n" unicode="n" horiz-adv-x="547" 
d="M488 303v-303h-69v303q0 54 -39.5 91.5t-103.5 37.5t-103 -55t-39 -137v-240h-69v479h69v-43q58 60 142 60q92 0 152 -51.5t60 -141.5z" />
    <glyph glyph-name="o" unicode="o" horiz-adv-x="544" 
d="M104 240q0 -79 50.5 -136t117.5 -57t117.5 57t50.5 136t-50.5 135.5t-117.5 56.5t-117.5 -56.5t-50.5 -135.5zM35 240q0 103 73 179.5t164 76.5t164.5 -76.5t73.5 -179.5q0 -104 -72.5 -180t-163.5 -76t-165 76.5t-74 179.5z" />
    <glyph glyph-name="p" unicode="p" 
d="M134 65v-269h-69v683h69v-63q73 80 168 80q91 0 164.5 -76.5t73.5 -179.5q0 -104 -72.5 -180t-163.5 -76q-95 0 -170 81zM134 240q0 -79 50.5 -136t117.5 -57t117.5 57t50.5 136t-50.5 135.5t-117.5 56.5t-117.5 -56.5t-50.5 -135.5z" />
    <glyph glyph-name="q" unicode="q" 
d="M35 240q0 103 73 179.5t164 76.5q95 0 168 -80v63h70v-684h-70v267q-72 -78 -166 -78q-91 0 -165 76.5t-74 179.5zM104 240q0 -79 50.5 -136t117.5 -57t117.5 57t50.5 136t-50.5 135.5t-117.5 56.5t-117.5 -56.5t-50.5 -135.5z" />
    <glyph glyph-name="r" unicode="r" horiz-adv-x="445" 
d="M384 352q-32 80 -118 80q-63 0 -97.5 -54t-34.5 -138v-240h-69v479h69v-38q55 55 132 55q133 0 181 -113z" />
    <glyph glyph-name="s" unicode="s" horiz-adv-x="475" 
d="M246 206q-3 1 -22.5 4.5t-26 5l-26 6t-27.5 8t-24.5 10.5t-24.5 13.5t-19.5 16t-17 20.5t-9.5 25t-4 30q0 70 56.5 110.5t146.5 40.5q132 0 180 -113l-62 -31q-32 80 -118 80q-64 0 -98 -23.5t-34 -63.5q0 -9 2.5 -16t8 -13t11.5 -10.5t15.5 -8t17 -6t20 -5l20 -4
t21.5 -3.5t20 -3q38 -6 66 -14t59.5 -23.5t48.5 -41.5t17 -62q0 -69 -62.5 -110t-154.5 -41q-68 0 -120 29.5t-75 83.5l62 31q15 -36 50 -58t83 -22q65 0 106.5 25t41.5 62q0 11 -3.5 20.5t-13 16t-16.5 11t-22.5 8.5t-23 6t-26 5t-23.5 4z" />
    <glyph glyph-name="t" unicode="t" horiz-adv-x="282" 
d="M29 416v63h61v159h70v-159h110v-63h-110v-416h-70v416h-61z" />
    <glyph glyph-name="u" unicode="u" horiz-adv-x="547" 
d="M59 176v303h69v-303q0 -54 39.5 -91.5t103.5 -37.5t103 55t39 137v240h70v-479h-70v42q-59 -59 -142 -59q-92 0 -152 51.5t-60 141.5z" />
    <glyph glyph-name="v" unicode="v" horiz-adv-x="466" 
d="M195 0l-194 479h76l156 -389l157 389h76l-195 -479h-76z" />
    <glyph glyph-name="w" unicode="w" horiz-adv-x="736" 
d="M172 0l-156 479h74l121 -375l121 375h71l121 -374l122 374h74l-156 -479h-78l-118 362l-118 -362h-78z" />
    <glyph glyph-name="x" unicode="x" horiz-adv-x="424" 
d="M171 250l-143 229h82l102 -164l102 164h83l-143 -229l156 -250h-83l-115 183l-115 -183h-82z" />
    <glyph glyph-name="y" unicode="y" horiz-adv-x="466" 
d="M233 90l157 389h76l-278 -684h-74l82 204l-195 480h76z" />
    <glyph glyph-name="z" unicode="z" horiz-adv-x="430" 
d="M38 416v63h354v-63l-270 -353h270v-63h-354v63l270 353h-270z" />
    <glyph glyph-name="braceleft" unicode="{" horiz-adv-x="253" 
d="M168 207q0 -34 -8.5 -88t-8.5 -72q0 -35 21.5 -56.5t45.5 -26.5v-47q-55 8 -98 39.5t-43 91.5q0 34 8.5 88.5t8.5 71.5q0 28 -22 54t-44 30v47q23 4 48 30t25 54q0 17 -12 71.5t-12 88.5q0 60 42.5 91.5t97.5 39.5l1 -47q-24 -5 -45 -26.5t-21 -56.5q0 -18 8.5 -72
t8.5 -88q0 -72 -60 -109q59 -37 59 -108z" />
    <glyph glyph-name="bar" unicode="|" horiz-adv-x="177" 
d="M68 -70v838h42v-838h-42z" />
    <glyph glyph-name="braceright" unicode="}" horiz-adv-x="253" 
d="M86 424q0 34 8.5 88t8.5 72q0 35 -21.5 56.5t-45.5 26.5v47q55 -8 98 -39.5t43 -91.5q0 -34 -8.5 -88.5t-8.5 -71.5q0 -28 22 -54t44 -30v-47q-23 -4 -48 -30t-25 -54q0 -17 12 -71.5t12 -88.5q0 -60 -42.5 -91.5t-97.5 -39.5l-1 47q24 5 45 26.5t21 56.5q0 18 -8.5 72
t-8.5 88q0 71 60 108q-59 37 -59 109z" />
    <glyph glyph-name="asciitilde" unicode="~" horiz-adv-x="517" 
d="M342 329q28 0 54 21.5t30 43.5h47q-5 -46 -46 -89.5t-85 -43.5q-34 0 -87.5 32.5t-70.5 32.5q-28 0 -54.5 -21.5t-30.5 -43.5h-46q5 46 46 89.5t85 43.5q34 0 87.5 -32.5t70.5 -32.5z" />
    <glyph glyph-name="dieresis" horiz-adv-x="452" 
d="M259 628q0 23 16 39t39 16t40 -16t17 -39t-17 -39.5t-40 -16.5t-39 16.5t-16 39.5zM59 628q0 23 16.5 39t39.5 16t39.5 -16t16.5 -39t-16.5 -39.5t-39.5 -16.5t-39.5 16.5t-16.5 39.5z" />
    <glyph glyph-name="Adieresis" horiz-adv-x="589" 
d="M339 790q0 23 16 39t39 16t40 -16t17 -39t-17 -39.5t-40 -16.5t-39 16.5t-16 39.5zM139 790q0 23 16.5 39t39.5 16t39.5 -16t16.5 -39t-16.5 -39.5t-39.5 -16.5t-39.5 16.5t-16.5 39.5zM336 696l254 -696h-82l-72 196h-282l-71 -196h-82l253 696v2h83zM295 584l-118 -325
h237z" />
    <glyph glyph-name="AE" horiz-adv-x="790" 
d="M167 196l-106 -196h-81l376 696v2h392v-64h-316v-223h246v-63h-246v-285h319v-63h-395v196h-189zM202 259h154v286z" />
    <glyph glyph-name="Ccedilla" horiz-adv-x="588" 
d="M302 -15q-108 13 -182 118t-74 245q0 149 82.5 257.5t199.5 108.5q127 0 220 -144l-61 -43q-71 117 -159 117q-89 0 -146.5 -88t-57.5 -208t57 -207t147 -87q96 0 166 129l66 -36q-84 -145 -206 -161l-27 -56q55 0 82.5 -18t27.5 -40q0 -77 -210 -77v28q51 0 97 11.5
t46 31.5q0 10 -7 16t-31.5 9.5t-71.5 3.5z" />
    <glyph glyph-name="Egrave" horiz-adv-x="515" 
d="M352 743l-236 119l35 60l221 -145zM81 0v698h391v-64h-314v-223h245v-63h-245v-285h317v-63h-394z" />
    <glyph glyph-name="Edieresis" horiz-adv-x="515" 
d="M337 790q0 23 16 39t39 16t40 -16t17 -39t-17 -39.5t-40 -16.5t-39 16.5t-16 39.5zM137 790q0 23 16.5 39t39.5 16t39.5 -16t16.5 -39t-16.5 -39.5t-39.5 -16.5t-39.5 16.5t-16.5 39.5zM81 0v698h391v-64h-314v-223h245v-63h-245v-285h317v-63h-394z" />
    <glyph glyph-name="Idieresis" horiz-adv-x="259" 
d="M175 790q0 23 16 39t39 16t40 -16t17 -39t-17 -39.5t-40 -16.5t-39 16.5t-16 39.5zM-25 790q0 23 16.5 39t39.5 16t39.5 -16t16.5 -39t-16.5 -39.5t-39.5 -16.5t-39.5 16.5t-16.5 39.5zM168 631v-563h37v-68h-151v68h37v563h-37v67h151v-67h-37z" />
    <glyph glyph-name="Odieresis" horiz-adv-x="686" 
d="M388 790q0 23 16 39t39 16t40 -16t17 -39t-17 -39.5t-40 -16.5t-39 16.5t-16 39.5zM188 790q0 23 16.5 39t39.5 16t39.5 -16t16.5 -39t-16.5 -39.5t-39.5 -16.5t-39.5 16.5t-16.5 39.5zM124 348q0 -117 64 -205.5t155 -88.5t155 88.5t64 205.5q0 118 -64 207t-155 89
t-155 -89t-64 -207zM43 348q0 147 90.5 256.5t209.5 109.5t209.5 -109.5t90.5 -256.5t-90.5 -255.5t-209.5 -108.5t-209.5 108.5t-90.5 255.5z" />
    <glyph glyph-name="adieresis" 
d="M327 628q0 23 16 39t39 16t40 -16t17 -39t-17 -39.5t-40 -16.5t-39 16.5t-16 39.5zM127 628q0 23 16.5 39t39.5 16t39.5 -16t16.5 -39t-16.5 -39.5t-39.5 -16.5t-39.5 16.5t-16.5 39.5zM35 240q0 103 73 179.5t164 76.5q95 0 168 -80v63h70v-479h-70v62q-72 -78 -166 -78
q-91 0 -165 76.5t-74 179.5zM104 240q0 -79 50.5 -136t117.5 -57t117.5 57t50.5 136t-50.5 135.5t-117.5 56.5t-117.5 -56.5t-50.5 -135.5z" />
    <glyph glyph-name="ae" horiz-adv-x="887" 
d="M114 365l-55 33q26 33 44.5 50.5t55 32t84.5 14.5q127 0 180 -120q34 54 88 87t111 33q91 0 164 -75.5t73 -179.5h-405q0 -79 50.5 -136t117.5 -57q51 0 84 11.5t48.5 28t33.5 46.5l56 -36q-37 -57 -85.5 -85t-134.5 -28q-93 0 -164 73q-88 -73 -247 -73q-80 0 -132.5 40
t-52.5 107q0 71 65.5 118.5t207.5 47.5q40 0 81 -12q-6 56 -42 101t-97 45q-36 0 -60.5 -9t-37 -21t-31.5 -36zM464 303h315q-18 57 -61.5 92.5t-95.5 35.5t-96 -35.5t-62 -92.5zM418 113q-32 58 -35 111q-56 13 -81 13q-97 0 -147.5 -28t-50.5 -79q0 -32 20.5 -52
t43.5 -25.5t48 -5.5q121 0 202 66z" />
    <glyph glyph-name="ccedilla" horiz-adv-x="490" 
d="M252 -15q-85 10 -150.5 84.5t-65.5 170.5q0 103 73 179.5t164 76.5q50 0 98.5 -26.5t83.5 -70.5l-52 -40q-52 73 -130 73q-67 0 -117.5 -56.5t-50.5 -135.5t50.5 -136t117.5 -57q53 0 82.5 16t56.5 51l54 -38q-67 -84 -162 -91l-26 -55q55 0 82 -18t27 -40
q0 -77 -210 -77v28q51 0 97.5 11.5t46.5 31.5q0 10 -7.5 16t-32 9.5t-71.5 3.5z" />
    <glyph glyph-name="egrave" horiz-adv-x="538" 
d="M332 581l-236 119l35 60l221 -145zM104 240q0 -79 50.5 -136t117.5 -57q73 0 106.5 20.5t60.5 66.5l56 -37q-37 -57 -86 -85t-135 -28q-91 0 -165 76.5t-74 179.5t73 179.5t164 76.5t164.5 -76.5t73.5 -179.5h-406zM115 303h315q-18 57 -62 93t-96 36t-95.5 -36
t-61.5 -93z" />
    <glyph glyph-name="edieresis" horiz-adv-x="538" 
d="M317 628q0 23 16 39t39 16t39.5 -16t16.5 -39t-16.5 -39.5t-39.5 -16.5t-39 16.5t-16 39.5zM117 628q0 23 16 39t39 16t40 -16t17 -39t-17 -39.5t-40 -16.5t-39 16.5t-16 39.5zM104 240q0 -79 50.5 -136t117.5 -57q73 0 106.5 20.5t60.5 66.5l56 -37q-37 -57 -86 -85
t-135 -28q-91 0 -165 76.5t-74 179.5t73 179.5t164 76.5t164.5 -76.5t73.5 -179.5h-406zM115 303h315q-18 57 -62 93t-96 36t-95.5 -36t-61.5 -93z" />
    <glyph glyph-name="idieresis" horiz-adv-x="198" 
d="M144 628q0 23 16 39t39 16t39.5 -16t16.5 -39t-16.5 -39.5t-39.5 -16.5t-39 16.5t-16 39.5zM-56 628q0 23 16 39t39 16t40 -16t17 -39t-17 -39.5t-40 -16.5t-39 16.5t-16 39.5zM65 0v479h69v-479h-69z" />
    <glyph glyph-name="odieresis" horiz-adv-x="544" 
d="M317 628q0 23 16 39t39 16t39.5 -16t16.5 -39t-16.5 -39.5t-39.5 -16.5t-39 16.5t-16 39.5zM117 628q0 23 16 39t39 16t40 -16t17 -39t-17 -39.5t-40 -16.5t-39 16.5t-16 39.5zM104 240q0 -79 50.5 -136t117.5 -57t117.5 57t50.5 136t-50.5 135.5t-117.5 56.5
t-117.5 -56.5t-50.5 -135.5zM35 240q0 103 73 179.5t164 76.5t164.5 -76.5t73.5 -179.5q0 -104 -72.5 -180t-163.5 -76t-165 76.5t-74 179.5z" />
    <glyph glyph-name="ydieresis" horiz-adv-x="466" 
d="M277 628q0 23 16 39t39 16t39.5 -16t16.5 -39t-16.5 -39.5t-39.5 -16.5t-39 16.5t-16 39.5zM77 628q0 23 16 39t39 16t40 -16t17 -39t-17 -39.5t-40 -16.5t-39 16.5t-16 39.5zM233 90l157 389h76l-278 -684h-74l82 204l-195 480h76z" />
    <glyph glyph-name="dotlessi" horiz-adv-x="198" 
d="M65 0v479h69v-479h-69z" />
    <glyph glyph-name="uni02CA" horiz-adv-x="398" 
d="M60 615l222 145l34 -60l-235 -119z" />
    <glyph glyph-name="uni02CB" horiz-adv-x="398" 
d="M296 581l-236 119l35 60l221 -145z" />
    <glyph glyph-name="gravecomb" horiz-adv-x="0" 
d="M-259 581l-236 119l35 60l221 -145z" />
    <glyph glyph-name="uni0304" horiz-adv-x="0" 
d="M-464 646h274v-46h-274v46z" />
    <glyph glyph-name="uni0308" horiz-adv-x="0" 
d="M-274 628q0 23 16 39t39 16t39.5 -16t16.5 -39t-16.5 -39.5t-39.5 -16.5t-39 16.5t-16 39.5zM-474 628q0 23 16 39t39 16t40 -16t17 -39t-17 -39.5t-40 -16.5t-39 16.5t-16 39.5z" />
    <glyph glyph-name="uni030B" horiz-adv-x="0" 
d="M-264 601l176 197l49 -49l-197 -176zM-440 601l176 197l49 -49l-197 -176z" />
    <glyph glyph-name="Gamma" horiz-adv-x="477" 
d="M158 634v-634h-77v698h391v-64h-314z" />
    <glyph glyph-name="Pi" horiz-adv-x="622" 
d="M81 0v698h77h307h77v-698h-77v635h-307v-635h-77z" />
    <glyph glyph-name="Phi" horiz-adv-x="653" 
d="M367 78v-78h-77v77q-107 13 -185 91.5t-78 179.5t78 180.5t185 92.5v77h77v-78q106 -14 183 -93t77 -179t-76.5 -178t-183.5 -92zM367 549v-399q74 14 126.5 70.5t52.5 127.5q0 72 -52.5 129.5t-126.5 71.5zM290 550q-75 -13 -128.5 -71.5t-53.5 -130.5t53.5 -129.5
t128.5 -70.5v402z" />
    <glyph glyph-name="tau" horiz-adv-x="466" 
d="M268 416v-416h-69v416h-186v63h441v-63h-186z" />
    <glyph glyph-name="uni0400" unicode="&#x400;" horiz-adv-x="515" 
d="M352 743l-236 119l35 60l221 -145zM81 0v698h391v-64h-314v-223h245v-63h-245v-285h317v-63h-394z" />
    <glyph glyph-name="afii10023" unicode="&#x401;" horiz-adv-x="515" 
d="M337 790q0 23 16 39t39 16t40 -16t17 -39t-17 -39.5t-40 -16.5t-39 16.5t-16 39.5zM137 790q0 23 16.5 39t39.5 16t39.5 -16t16.5 -39t-16.5 -39.5t-39.5 -16.5t-39.5 16.5t-16.5 39.5zM81 0v698h391v-64h-314v-223h245v-63h-245v-285h317v-63h-394z" />
    <glyph glyph-name="afii10051" unicode="&#x402;" horiz-adv-x="724" 
d="M19 635v63h476v-63h-200v-205q57 59 159 59q119 0 176.5 -67t57.5 -213q0 -160 -58 -233t-194 -73v63q93 0 132 54.5t39 188.5q0 105 -33 158t-120 53q-159 0 -159 -237v-183h-76v635h-200z" />
    <glyph glyph-name="afii10052" unicode="&#x403;" horiz-adv-x="477" 
d="M212 777l222 145l34 -60l-235 -119zM158 634v-634h-77v698h391v-64h-314z" />
    <glyph glyph-name="afii10053" unicode="&#x404;" horiz-adv-x="586" 
d="M559 147q-94 -163 -232 -163q-117 0 -199.5 107.5t-82.5 256.5t82.5 257.5t199.5 108.5q127 0 220 -144l-61 -43q-71 117 -159 117q-83 0 -139 -77t-64 -186h270v-64h-270q8 -110 64 -186.5t139 -76.5q96 0 166 129z" />
    <glyph glyph-name="afii10054" unicode="&#x405;" horiz-adv-x="565" 
d="M285 314q-111 30 -169 78t-58 132q0 92 59 141t166 49q131 0 223 -120l-57 -48q-73 98 -166 98q-78 0 -112.5 -29t-34.5 -91q0 -24 7.5 -42.5t16.5 -29.5t29.5 -21.5t32.5 -15t40 -13t39 -12.5q103 -35 134 -53q91 -52 91 -163q0 -92 -68.5 -141t-188.5 -49
q-68 0 -131.5 39t-105.5 105l60 43q31 -52 78.5 -84.5t98.5 -32.5q92 0 136 29t44 91q0 60 -37 88t-127 52z" />
    <glyph glyph-name="afii10055" unicode="&#x406;" horiz-adv-x="259" 
d="M168 631v-563h37v-68h-151v68h37v563h-37v67h151v-67h-37z" />
    <glyph glyph-name="afii10056" unicode="&#x407;" horiz-adv-x="259" 
d="M175 790q0 23 16 39t39 16t40 -16t17 -39t-17 -39.5t-40 -16.5t-39 16.5t-16 39.5zM-25 790q0 23 16.5 39t39.5 16t39.5 -16t16.5 -39t-16.5 -39.5t-39.5 -16.5t-39.5 16.5t-16.5 39.5zM168 631v-563h37v-68h-151v68h37v563h-37v67h151v-67h-37z" />
    <glyph glyph-name="afii10057" unicode="&#x408;" horiz-adv-x="501" 
d="M77 161q15 -49 49.5 -77.5t81.5 -28.5q68 0 104.5 38.5t36.5 116.5v488h77v-488q0 -103 -62 -164.5t-154 -61.5q-63 0 -117 40.5t-81 105.5z" />
    <glyph glyph-name="afii10058" unicode="&#x409;" horiz-adv-x="905" 
d="M221 152q0 -63 -44 -107.5t-107 -44.5h-70v63h62q35 0 58.5 26.5t23.5 62.5v546h349v-288h146q98 0 171.5 -53t73.5 -152t-72.5 -152t-170.5 -53h-225v635h-195v-483zM493 63h146q69 0 115 37t46 105t-45.5 104.5t-115.5 36.5h-146v-283z" />
    <glyph glyph-name="afii10059" unicode="&#x40a;" horiz-adv-x="920" 
d="M81 0v698h77v-288h273v288h78v-288h145q98 0 171.5 -53t73.5 -152t-72.5 -152t-170.5 -53h-225v346h-273v-346h-77zM509 346v-283h145q69 0 115 37t46 105t-45.5 104.5t-115.5 36.5h-145z" />
    <glyph glyph-name="afii10060" unicode="&#x40b;" horiz-adv-x="723" 
d="M607 0v183q0 237 -153 237q-159 0 -159 -237v-183h-76v635h-200v63h476v-63h-200v-205q57 59 159 59q229 0 229 -306v-183h-76z" />
    <glyph glyph-name="afii10061" unicode="&#x40c;" horiz-adv-x="565" 
d="M239 779l222 145l34 -60l-235 -119zM81 0v698h77v-311q46 10 82 46t60 79.5t51 86t69.5 71t100.5 28.5q0 -15 1 -36.5t1 -38.5q-39 0 -71.5 -26t-52 -59.5t-49 -81t-57.5 -75.5q102 -85 176.5 -196t74.5 -185h-93q0 66 -56.5 158t-165.5 176q-36 -18 -71 -23v-311h-77z
" />
    <glyph glyph-name="uni040D" unicode="&#x40d;" horiz-adv-x="644" 
d="M388 744l-236 119l35 60l221 -145zM563 0h-77v570l-329 -570h-76v698h76v-572l329 572h77v-698z" />
    <glyph glyph-name="afii10062" unicode="&#x40e;" horiz-adv-x="457" 
d="M252 736h-27q-61 0 -100 18.5t-39 48.5q0 20 22 45h40q-7 -19 -7 -28q0 -22 21 -30t63 -8h27q42 0 63 8t21 30q0 12 -6 28h40q21 -24 21 -45q0 -30 -39 -48.5t-100 -18.5zM457 698l-187 -542q-53 -156 -217 -156v63q102 0 137 100l21 58l-193 477h83l148 -367l127 367h81
z" />
    <glyph glyph-name="afii10145" unicode="&#x40f;" horiz-adv-x="643" 
d="M364 0v-84h-77v84h-206v698h77v-635h327v635h77v-698h-198z" />
    <glyph glyph-name="afii10017" unicode="&#x410;" horiz-adv-x="589" 
d="M336 696l254 -696h-82l-72 196h-282l-71 -196h-82l253 696v2h83zM295 584l-118 -325h237z" />
    <glyph glyph-name="afii10018" unicode="&#x411;" horiz-adv-x="581" 
d="M81 0v698h412v-64h-335v-224h146q98 0 171.5 -53t73.5 -152t-72.5 -152t-170.5 -53h-225zM158 346v-283h146q69 0 115 37t46 105t-45.5 104.5t-115.5 36.5h-146z" />
    <glyph glyph-name="afii10019" unicode="&#x412;" horiz-adv-x="588" 
d="M81 0v698h207q90 0 152 -49t62 -126q0 -86 -77 -137q56 -24 90 -69.5t34 -111.5q0 -99 -72.5 -152t-170.5 -53h-225zM158 346v-283h146q69 0 115 37t46 105t-45.5 104.5t-115.5 36.5h-146zM158 634v-223h130q62 0 96 33.5t34 78.5q0 44 -34 77.5t-96 33.5h-130z" />
    <glyph glyph-name="afii10020" unicode="&#x413;" horiz-adv-x="477" 
d="M158 634v-634h-77v698h391v-64h-314z" />
    <glyph glyph-name="afii10021" unicode="&#x414;" horiz-adv-x="652" 
d="M85 0v-84h-77v147h67q46 111 78.5 281t32.5 354h374v-635h39v-147h-77v84h-39h-398zM160 63h323v572h-220q0 -312 -103 -572z" />
    <glyph glyph-name="afii10022" unicode="&#x415;" horiz-adv-x="515" 
d="M81 0v698h391v-64h-314v-223h245v-63h-245v-285h317v-63h-394z" />
    <glyph glyph-name="afii10024" unicode="&#x416;" horiz-adv-x="892" 
d="M43 623q0 17 1 38.5t1 36.5q58 0 101 -28.5t69.5 -71t51 -86t60.5 -79.5t82 -46v311h76v-311q46 10 82 46t60.5 79.5t51 86t69.5 71t101 28.5q0 -15 1 -36.5t1 -38.5q-39 0 -71.5 -26t-52 -59.5t-49 -81t-57.5 -75.5q102 -85 176 -196t74 -185h-93q0 67 -56 158.5
t-165 175.5q-36 -18 -72 -23v-311h-76v311q-36 5 -72 23q-109 -84 -165 -175.5t-56 -158.5h-93q0 74 74 185t176 196q-28 28 -57.5 75.5t-49 81t-52 59.5t-71.5 26z" />
    <glyph glyph-name="afii10025" unicode="&#x417;" horiz-adv-x="525" 
d="M378 374q103 -48 103 -167q0 -106 -66.5 -164.5t-174.5 -58.5q-87 0 -139.5 24.5t-90.5 72.5l55 43q50 -71 175 -71q70 0 117 40.5t47 96.5q0 64 -49.5 104.5t-137.5 40.5v68q86 0 125 34t39 86q0 49 -35 85.5t-91 36.5q-42 0 -85.5 -12.5t-67.5 -40.5l-51 48
q35 37 93 55.5t111 18.5q88 0 145.5 -48t57.5 -143q0 -98 -80 -149z" />
    <glyph glyph-name="afii10026" unicode="&#x418;" horiz-adv-x="644" 
d="M563 0h-77v570l-329 -570h-76v698h76v-572l329 572h77v-698z" />
    <glyph glyph-name="afii10027" unicode="&#x419;" horiz-adv-x="644" 
d="M563 0h-77v570l-329 -570h-76v698h76v-572l329 572h77v-698zM341 736h-27q-61 0 -100 18.5t-39 48.5q0 20 22 45h40q-7 -19 -7 -28q0 -22 21 -30t63 -8h27q42 0 63 8t21 30q0 12 -6 28h40q21 -24 21 -45q0 -30 -39 -48.5t-100 -18.5z" />
    <glyph glyph-name="afii10028" unicode="&#x41a;" horiz-adv-x="565" 
d="M81 0v698h77v-311q46 10 82 46t60 79.5t51 86t69.5 71t100.5 28.5q0 -15 1 -36.5t1 -38.5q-39 0 -71.5 -26t-52 -59.5t-49 -81t-57.5 -75.5q102 -85 176.5 -196t74.5 -185h-93q0 66 -56.5 158t-165.5 176q-36 -18 -71 -23v-311h-77z" />
    <glyph glyph-name="afii10029" unicode="&#x41b;" horiz-adv-x="654" 
d="M221 152q0 -63 -44 -107.5t-107 -44.5h-70v63h62q35 0 58.5 26.5t23.5 62.5v546h429v-698h-76v635h-276v-483z" />
    <glyph glyph-name="afii10030" unicode="&#x41c;" horiz-adv-x="812" 
d="M81 0v698h83l243 -597l241 597h83v-698h-76v515l-208 -515h-81l-208 514v-514h-77z" />
    <glyph glyph-name="afii10031" unicode="&#x41d;" horiz-adv-x="622" 
d="M81 0v698h77v-302h307v302h77v-698h-77v333h-307v-333h-77z" />
    <glyph glyph-name="afii10032" unicode="&#x41e;" horiz-adv-x="686" 
d="M124 348q0 -117 64 -205.5t155 -88.5t155 88.5t64 205.5q0 118 -64 207t-155 89t-155 -89t-64 -207zM43 348q0 147 90.5 256.5t209.5 109.5t209.5 -109.5t90.5 -256.5t-90.5 -255.5t-209.5 -108.5t-209.5 108.5t-90.5 255.5z" />
    <glyph glyph-name="afii10033" unicode="&#x41f;" horiz-adv-x="622" 
d="M81 0v698h77h307h77v-698h-77v635h-307v-635h-77z" />
    <glyph glyph-name="afii10034" unicode="&#x420;" horiz-adv-x="570" 
d="M81 0v698h223q98 0 171.5 -53t73.5 -152t-72.5 -152t-170.5 -53h-148v-288h-77zM158 634v-282h146q70 0 115.5 36.5t45.5 104.5t-45.5 104.5t-115.5 36.5h-146z" />
    <glyph glyph-name="afii10035" unicode="&#x421;" horiz-adv-x="586" 
d="M559 147q-94 -163 -232 -163q-117 0 -199.5 107.5t-82.5 256.5t82.5 257.5t199.5 108.5q127 0 220 -144l-61 -43q-71 117 -159 117q-89 0 -146.5 -88t-57.5 -208t57 -207t147 -87q96 0 166 129z" />
    <glyph glyph-name="afii10036" unicode="&#x422;" horiz-adv-x="514" 
d="M19 635v63h476v-63h-200v-635h-76v635h-200z" />
    <glyph glyph-name="afii10037" unicode="&#x423;" horiz-adv-x="457" 
d="M457 698l-187 -542q-53 -156 -217 -156v63q102 0 137 100l21 58l-193 477h83l148 -367l127 367h81z" />
    <glyph glyph-name="afii10038" unicode="&#x424;" horiz-adv-x="653" 
d="M367 78v-78h-77v77q-107 13 -185 91.5t-78 179.5t78 180.5t185 92.5v77h77v-78q106 -14 183 -93t77 -179t-76.5 -178t-183.5 -92zM367 549v-399q74 14 126.5 70.5t52.5 127.5q0 72 -52.5 129.5t-126.5 71.5zM290 550q-75 -13 -128.5 -71.5t-53.5 -130.5t53.5 -129.5
t128.5 -70.5v402z" />
    <glyph glyph-name="afii10039" unicode="&#x425;" horiz-adv-x="507" 
d="M297 357l190 -357h-86l-147 276l-146 -276h-86l189 357l-181 341h86l138 -261l139 261h86z" />
    <glyph glyph-name="afii10040" unicode="&#x426;" horiz-adv-x="695" 
d="M655 63v-147h-76v84h-498v698h77v-635h348v635h77v-635h72z" />
    <glyph glyph-name="afii10041" unicode="&#x427;" horiz-adv-x="599" 
d="M440 537v161h78v-698h-78v334q-66 -66 -165 -66q-108 0 -175 77.5t-67 191.5v161h77v-161q0 -84 44.5 -144t120.5 -60t120.5 60t44.5 144z" />
    <glyph glyph-name="afii10042" unicode="&#x428;" horiz-adv-x="904" 
d="M823 698v-698h-742v698h77v-635h256v635h76v-635h256v635h77z" />
    <glyph glyph-name="afii10043" unicode="&#x429;" horiz-adv-x="936" 
d="M897 63v-147h-77v84h-739v698h77v-635h256v635h76v-635h256v635h77v-635h74z" />
    <glyph glyph-name="afii10044" unicode="&#x42a;" horiz-adv-x="643" 
d="M230 346v-283h147q69 0 115 37t46 105t-45.5 104.5t-115.5 36.5h-147zM379 0h-225v634h-145v64h221v-288h147q98 0 171.5 -53t73.5 -152t-72.5 -152t-170.5 -53z" />
    <glyph glyph-name="afii10045" unicode="&#x42b;" horiz-adv-x="801" 
d="M711 631v-563h37v-68h-151v68h37v563h-37v67h151v-67h-37zM81 0v698h77v-288h146q98 0 171.5 -53t73.5 -152t-72.5 -152t-170.5 -53h-225zM158 346v-283h146q69 0 115 37t46 105t-45.5 104.5t-115.5 36.5h-146z" />
    <glyph glyph-name="afii10046" unicode="&#x42c;" horiz-adv-x="570" 
d="M81 0v698h77v-288h146q98 0 171.5 -53t73.5 -152t-72.5 -152t-170.5 -53h-225zM158 346v-283h146q69 0 115 37t46 105t-45.5 104.5t-115.5 36.5h-146z" />
    <glyph glyph-name="afii10047" unicode="&#x42d;" horiz-adv-x="586" 
d="M28 147l66 36q70 -129 166 -129q83 0 139 76.5t64 186.5h-272v64h272q-8 109 -64 186t-139 77q-89 0 -160 -117l-60 43q93 144 220 144q117 0 199.5 -108.5t82.5 -257.5t-82.5 -256.5t-199.5 -107.5q-138 0 -232 163z" />
    <glyph glyph-name="afii10048" unicode="&#x42e;" horiz-adv-x="912" 
d="M81 0v698h77v-317h112q10 136 99 234.5t200 98.5q119 0 209.5 -109.5t90.5 -256.5t-90.5 -255.5t-209.5 -108.5q-111 0 -200 98t-99 235h-112v-317h-77zM350 348q0 -117 64 -205.5t155 -88.5t155 88.5t64 205.5q0 118 -64 207t-155 89t-155 -89t-64 -207z" />
    <glyph glyph-name="afii10049" unicode="&#x42f;" horiz-adv-x="575" 
d="M418 634h-105q-69 0 -114.5 -36.5t-45.5 -104.5t45.5 -104.5t114.5 -36.5h105v282zM495 0h-77v288h-27q-57 0 -109.5 -24t-70.5 -75q-34 -100 -71 -144.5t-113 -44.5v63q9 0 17.5 2t15 4.5t13 9t10.5 10t9.5 14t8.5 15t8 18t7 19t7.5 21.5t7.5 21q22 65 83 106
q-65 22 -105 69.5t-40 120.5q0 99 73 152t171 53h182v-698z" />
    <glyph glyph-name="afii10065" unicode="&#x430;" 
d="M35 240q0 103 73 179.5t164 76.5q95 0 168 -80v63h70v-479h-70v62q-72 -78 -166 -78q-91 0 -165 76.5t-74 179.5zM104 240q0 -79 50.5 -136t117.5 -57t117.5 57t50.5 136t-50.5 135.5t-117.5 56.5t-117.5 -56.5t-50.5 -135.5z" />
    <glyph glyph-name="afii10066" unicode="&#x431;" horiz-adv-x="533" 
d="M450 743q0 -45 -36 -73.5t-106 -28.5q-134 0 -171 -203q63 58 138 58q89 0 156 -75.5t67 -180.5t-65.5 -180.5t-154.5 -75.5q-90 0 -157.5 75.5t-67.5 180.5t11 182t38 142.5t78.5 99.5t127.5 34q72 0 72 45h70zM123 240q0 -81 43.5 -137t108.5 -56t109 56.5t44 136.5
t-44 136t-109 56t-108.5 -56t-43.5 -136z" />
    <glyph glyph-name="afii10067" unicode="&#x432;" horiz-adv-x="478" 
d="M65 0v479h137q110 0 156 -29.5t46 -96.5q0 -56 -38 -86q77 -35 77 -117q0 -76 -59 -113t-160 -37h-159zM134 63h88q144 0 144 87q0 46 -35.5 61.5t-108.5 15.5h-88v-164zM134 416v-125h65q74 0 101 12t27 50t-25.5 50.5t-99.5 12.5h-68z" />
    <glyph glyph-name="afii10068" unicode="&#x433;" horiz-adv-x="374" 
d="M65 0v479h309v-63h-240v-416h-69z" />
    <glyph glyph-name="afii10069" unicode="&#x434;" horiz-adv-x="578" 
d="M81 0v-84h-77v147h73q49 85 77 180t28 236h299v-416h79v-147h-77v84h-2h-69h-331zM160 63h252v353h-160q0 -200 -92 -353z" />
    <glyph glyph-name="afii10070" unicode="&#x435;" horiz-adv-x="538" 
d="M104 240q0 -79 50.5 -136t117.5 -57q73 0 106.5 20.5t60.5 66.5l56 -37q-37 -57 -86 -85t-135 -28q-91 0 -165 76.5t-74 179.5t73 179.5t164 76.5t164.5 -76.5t73.5 -179.5h-406zM115 303h315q-18 57 -62 93t-96 36t-95.5 -36t-61.5 -93z" />
    <glyph glyph-name="afii10072" unicode="&#x436;" horiz-adv-x="743" 
d="M48 403q0 17 0.5 39t0.5 37q46 0 78.5 -14.5t49 -37t32.5 -49t28.5 -51t38 -43t60.5 -24.5v219h72v-219q35 6 60.5 24.5t38 43t28.5 51t32 49t48.5 37t78.5 14.5q0 -15 0.5 -37t0.5 -39q-42 0 -66.5 -22.5t-49 -67.5t-43.5 -66q87 -49 134.5 -122.5t47.5 -124.5h-83
q0 14 -7 35.5t-22.5 51.5t-50.5 61t-83 53q-36 -14 -64 -16v-185h-72v185q-30 2 -65 16q-48 -22 -82.5 -53t-50.5 -61t-22.5 -51.5t-6.5 -35.5h-83q0 51 47.5 124.5t134.5 122.5q-17 19 -36 51t-31.5 52.5t-36.5 36.5t-56 16z" />
    <glyph glyph-name="afii10073" unicode="&#x437;" horiz-adv-x="433" 
d="M179 227v64q105 8 105 62q0 73 -80 73q-46 0 -109 -76l-48 41q3 4 16 19.5t17.5 20.5t17 17.5t21.5 17t22.5 11.5t29 9.5t33.5 2.5q71 0 114 -36t43 -100q0 -55 -55 -87q94 -42 94 -129q0 -68 -56 -107.5t-128 -39.5q-40 0 -71.5 7t-56 22.5t-36.5 25.5t-33 31l46 45
q68 -68 149 -68q44 0 76.5 24t32.5 60q0 90 -144 90z" />
    <glyph glyph-name="afii10074" unicode="&#x438;" horiz-adv-x="542" 
d="M65 0v479h69v-400l258 400h86v-479h-69v395l-255 -395h-89z" />
    <glyph glyph-name="afii10075" unicode="&#x439;" horiz-adv-x="542" 
d="M284 580h-27q-61 0 -100 18.5t-39 48.5q0 20 22 45h40q-7 -19 -7 -28q0 -22 21 -30t63 -8h27q42 0 63 8t21 30q0 12 -6 28h40q21 -24 21 -45q0 -30 -39 -48.5t-100 -18.5zM65 0v479h69v-400l258 400h86v-479h-69v395l-255 -395h-89z" />
    <glyph glyph-name="afii10076" unicode="&#x43a;" horiz-adv-x="471" 
d="M65 0v479h69v-219q35 6 60.5 24.5t38.5 43t29 51t32.5 49t49 37t78.5 14.5q0 -15 0.5 -37t0.5 -39q-32 0 -56 -16t-36.5 -36.5t-31.5 -52.5t-36 -51q87 -49 134.5 -122.5t47.5 -124.5h-83q0 14 -6.5 35.5t-22.5 51.5t-50.5 61t-82.5 53q-35 -14 -66 -16v-185h-69z" />
    <glyph glyph-name="afii10077" unicode="&#x43b;" horiz-adv-x="526" 
d="M219 152q0 -64 -41 -108t-103 -44h-70v63h63q35 0 58.5 26.5t23.5 62.5v327h312v-479h-70v416h-173v-264z" />
    <glyph glyph-name="afii10078" unicode="&#x43c;" horiz-adv-x="627" 
d="M531 479l51 -479h-70l-36 344l-126 -344h-74l-124 344l-36 -344h-70l50 479h80l137 -378l138 378h80z" />
    <glyph glyph-name="afii10079" unicode="&#x43d;" horiz-adv-x="542" 
d="M65 0v479h69v-198h275v198h69v-479h-69v217h-275v-217h-69z" />
    <glyph glyph-name="afii10080" unicode="&#x43e;" horiz-adv-x="544" 
d="M104 240q0 -79 50.5 -136t117.5 -57t117.5 57t50.5 136t-50.5 135.5t-117.5 56.5t-117.5 -56.5t-50.5 -135.5zM35 240q0 103 73 179.5t164 76.5t164.5 -76.5t73.5 -179.5q0 -104 -72.5 -180t-163.5 -76t-165 76.5t-74 179.5z" />
    <glyph glyph-name="afii10081" unicode="&#x43f;" horiz-adv-x="542" 
d="M65 0v479h413v-479h-69v416h-275v-416h-69z" />
    <glyph glyph-name="afii10082" unicode="&#x440;" 
d="M134 65v-269h-69v683h69v-63q73 80 168 80q91 0 164.5 -76.5t73.5 -179.5q0 -104 -72.5 -180t-163.5 -76q-95 0 -170 81zM134 240q0 -79 50.5 -136t117.5 -57t117.5 57t50.5 136t-50.5 135.5t-117.5 56.5t-117.5 -56.5t-50.5 -135.5z" />
    <glyph glyph-name="afii10083" unicode="&#x441;" horiz-adv-x="488" 
d="M465 76q-37 -46 -81 -69t-110 -23q-91 0 -165 76.5t-74 179.5t73 179.5t164 76.5q50 0 98.5 -26.5t83.5 -70.5l-52 -40q-52 73 -130 73q-67 0 -117.5 -56.5t-50.5 -135.5t50.5 -136t117.5 -57q53 0 82.5 16t56.5 51z" />
    <glyph glyph-name="afii10084" unicode="&#x442;" horiz-adv-x="466" 
d="M268 416v-416h-69v416h-186v63h441v-63h-186z" />
    <glyph glyph-name="afii10085" unicode="&#x443;" horiz-adv-x="466" 
d="M233 90l157 389h76l-278 -684h-74l82 204l-195 480h76z" />
    <glyph glyph-name="afii10086" unicode="&#x444;" horiz-adv-x="835" 
d="M383 97v273q-47 62 -121 62q-66 0 -112 -56t-46 -136q0 -79 50.5 -136t117.5 -57q61 0 111 50zM383 458v123h70v-123q50 38 120 38q90 0 159 -76t69 -180q0 -103 -74.5 -179.5t-165.5 -76.5q-55 0 -108 31v-220h-70v220q-53 -31 -109 -31q-91 0 -165 76.5t-74 179.5
q0 104 68.5 180t158.5 76q71 0 121 -38zM453 370v-273q50 -50 110 -50q67 0 117.5 57t50.5 136q0 80 -46 136t-112 56q-73 0 -120 -62z" />
    <glyph glyph-name="afii10087" unicode="&#x445;" horiz-adv-x="424" 
d="M171 250l-143 229h82l102 -164l102 164h83l-143 -229l156 -250h-83l-115 183l-115 -183h-82z" />
    <glyph glyph-name="afii10088" unicode="&#x446;" horiz-adv-x="565" 
d="M537 63v-147h-70v84h-402v479h69v-416h275v416h69v-416h59z" />
    <glyph glyph-name="afii10089" unicode="&#x447;" horiz-adv-x="485" 
d="M28 355v124h68v-124q0 -56 32.5 -92.5t95.5 -36.5t94.5 53.5t31.5 138.5v61h71v-479h-71v212q-50 -50 -126 -50q-90 0 -143 51t-53 142z" />
    <glyph glyph-name="afii10090" unicode="&#x448;" horiz-adv-x="706" 
d="M642 479v-479h-577v479h69v-416h184v416h70v-416h184v416h70z" />
    <glyph glyph-name="afii10091" unicode="&#x449;" horiz-adv-x="729" 
d="M700 63v-147h-69v84h-243h-323v479h69v-416h184v416h70v-416h184v416h70v-416h58z" />
    <glyph glyph-name="afii10092" unicode="&#x44a;" horiz-adv-x="535" 
d="M205 254v-191h88q68 0 105.5 24t37.5 72q0 95 -143 95h-88zM135 416h-126v63h196v-162h88q100 0 160.5 -41t60.5 -117q0 -77 -59.5 -118t-159.5 -41h-160v416z" />
    <glyph glyph-name="afii10093" unicode="&#x44b;" horiz-adv-x="643" 
d="M509 0v479h70v-479h-70zM65 0v479h69v-162h88q100 0 160.5 -41t60.5 -117q0 -77 -59.5 -118t-159.5 -41h-159zM134 254v-191h88q68 0 106 24t38 72q0 47 -38 71t-106 24h-88z" />
    <glyph glyph-name="afii10094" unicode="&#x44c;" horiz-adv-x="464" 
d="M65 0v479h69v-162h88q100 0 160.5 -41t60.5 -117q0 -77 -59.5 -118t-159.5 -41h-159zM134 254v-191h88q68 0 106 24t38 72q0 47 -38 71t-106 24h-88z" />
    <glyph glyph-name="afii10095" unicode="&#x44d;" horiz-adv-x="484" 
d="M19 76l55 38q27 -35 56 -51t82 -16q62 0 111 49t56 121h-246v64h243q-13 65 -59.5 108t-104.5 43q-78 0 -130 -73l-51 40q35 44 83 70.5t98 26.5q91 0 164.5 -76.5t73.5 -179.5t-74.5 -179.5t-165.5 -76.5q-66 0 -110 23t-81 69z" />
    <glyph glyph-name="afii10096" unicode="&#x44e;" horiz-adv-x="738" 
d="M298 240q0 -79 50.5 -136t117.5 -57t117.5 57t50.5 136t-50.5 135.5t-117.5 56.5t-117.5 -56.5t-50.5 -135.5zM65 0v479h69v-198h97q15 90 84.5 152.5t150.5 62.5q91 0 164 -76.5t73 -179.5q0 -104 -72.5 -180t-162.5 -76q-86 0 -158 68.5t-81 164.5h-95v-217h-69z" />
    <glyph glyph-name="afii10097" unicode="&#x44f;" horiz-adv-x="482" 
d="M348 225v191h-88q-143 0 -143 -95q0 -48 37.5 -72t105.5 -24h88zM418 479v-479h-70v162h-88h-20l-114 -162h-85l122 174q-124 36 -124 147q0 77 59.5 117.5t159.5 40.5h160z" />
    <glyph glyph-name="uni0450" unicode="&#x450;" horiz-adv-x="538" 
d="M332 581l-236 119l35 60l221 -145zM104 240q0 -79 50.5 -136t117.5 -57q73 0 106.5 20.5t60.5 66.5l56 -37q-37 -57 -86 -85t-135 -28q-91 0 -165 76.5t-74 179.5t73 179.5t164 76.5t164.5 -76.5t73.5 -179.5h-406zM115 303h315q-18 57 -62 93t-96 36t-95.5 -36
t-61.5 -93z" />
    <glyph glyph-name="afii10071" unicode="&#x451;" horiz-adv-x="538" 
d="M317 628q0 23 16 39t39 16t39.5 -16t16.5 -39t-16.5 -39.5t-39.5 -16.5t-39 16.5t-16 39.5zM117 628q0 23 16 39t39 16t40 -16t17 -39t-17 -39.5t-40 -16.5t-39 16.5t-16 39.5zM104 240q0 -79 50.5 -136t117.5 -57q73 0 106.5 20.5t60.5 66.5l56 -37q-37 -57 -86 -85
t-135 -28q-91 0 -165 76.5t-74 179.5t73 179.5t164 76.5t164.5 -76.5t73.5 -179.5h-406zM115 303h315q-18 57 -62 93t-96 36t-95.5 -36t-61.5 -93z" />
    <glyph glyph-name="afii10099" unicode="&#x452;" horiz-adv-x="547" 
d="M488 -22q0 -63 -44 -107.5t-107 -44.5h-82v64h82q35 0 58.5 26t23.5 62v325q0 54 -39.5 91.5t-103.5 37.5t-103 -55t-39 -137v-240h-69v634h-48v64h48v45h69v-45h172v-64h-172v-199q59 61 142 61q92 0 152 -51.5t60 -141.5v-325z" />
    <glyph glyph-name="afii10100" unicode="&#x453;" horiz-adv-x="374" 
d="M159 618l222 145l34 -60l-235 -119zM65 0v479h309v-63h-240v-416h-69z" />
    <glyph glyph-name="afii10101" unicode="&#x454;" horiz-adv-x="484" 
d="M465 76q-37 -46 -81 -69t-110 -23q-91 0 -165 76.5t-74 179.5t73 179.5t164 76.5q50 0 98.5 -26.5t83.5 -70.5l-52 -40q-52 73 -130 73q-58 0 -104 -43t-59 -108h238v-64h-242q7 -72 56 -121t111 -49q53 0 82.5 16t56.5 51z" />
    <glyph glyph-name="afii10102" unicode="&#x455;" horiz-adv-x="475" 
d="M246 206q-3 1 -22.5 4.5t-26 5l-26 6t-27.5 8t-24.5 10.5t-24.5 13.5t-19.5 16t-17 20.5t-9.5 25t-4 30q0 70 56.5 110.5t146.5 40.5q132 0 180 -113l-62 -31q-32 80 -118 80q-64 0 -98 -23.5t-34 -63.5q0 -9 2.5 -16t8 -13t11.5 -10.5t15.5 -8t17 -6t20 -5l20 -4
t21.5 -3.5t20 -3q38 -6 66 -14t59.5 -23.5t48.5 -41.5t17 -62q0 -69 -62.5 -110t-154.5 -41q-68 0 -120 29.5t-75 83.5l62 31q15 -36 50 -58t83 -22q65 0 106.5 25t41.5 62q0 11 -3.5 20.5t-13 16t-16.5 11t-22.5 8.5t-23 6t-26 5t-23.5 4z" />
    <glyph glyph-name="afii10103" unicode="&#x456;" horiz-adv-x="198" 
d="M44 628q0 23 16 39t39 16t39.5 -16t16.5 -39t-16.5 -39.5t-39.5 -16.5t-39 16.5t-16 39.5zM65 0v479h69v-479h-69z" />
    <glyph glyph-name="afii10104" unicode="&#x457;" horiz-adv-x="198" 
d="M144 628q0 23 16 39t39 16t39.5 -16t16.5 -39t-16.5 -39.5t-39.5 -16.5t-39 16.5t-16 39.5zM-56 628q0 23 16 39t39 16t40 -16t17 -39t-17 -39.5t-40 -16.5t-39 16.5t-16 39.5zM65 0v479h69v-479h-69z" />
    <glyph glyph-name="afii10105" unicode="&#x458;" horiz-adv-x="198" 
d="M44 628q0 23 16 39t39 16t39.5 -16t16.5 -39t-16.5 -39.5t-39.5 -16.5t-39 16.5t-16 39.5zM-46 -141h29q35 0 58.5 26t23.5 62v532h69v-532q0 -63 -44 -107.5t-107 -44.5h-29v64z" />
    <glyph glyph-name="afii10106" unicode="&#x459;" horiz-adv-x="791" 
d="M219 152q0 -64 -41 -108t-103 -44h-70v63h63q35 0 58.5 26.5t23.5 62.5v327h312v-162h87q100 0 160.5 -41t60.5 -117q0 -77 -59.5 -118t-159.5 -41h-160v416h-172v-264zM462 254v-191h87q68 0 105.5 24t37.5 72q0 95 -143 95h-87z" />
    <glyph glyph-name="afii10107" unicode="&#x45a;" horiz-adv-x="807" 
d="M65 0v479h69v-198h274v198h70v-162h87q100 0 160.5 -41t60.5 -117q0 -77 -59.5 -118t-159.5 -41h-159v217h-274v-217h-69zM478 254v-191h87q68 0 106 24t38 72q0 47 -38 71t-106 24h-87z" />
    <glyph glyph-name="afii10108" unicode="&#x45b;" horiz-adv-x="547" 
d="M419 0v303q0 54 -39.5 91.5t-103.5 37.5t-103 -55t-39 -137v-240h-69v634h-48v64h48v45h69v-45h172v-64h-172v-199q59 61 142 61q92 0 152 -51.5t60 -141.5v-303h-69z" />
    <glyph glyph-name="afii10109" unicode="&#x45c;" horiz-adv-x="471" 
d="M178 616l222 145l34 -60l-235 -119zM65 0v479h69v-219q35 6 60.5 24.5t38.5 43t29 51t32.5 49t49 37t78.5 14.5q0 -15 0.5 -37t0.5 -39q-32 0 -56 -16t-36.5 -36.5t-31.5 -52.5t-36 -51q87 -49 134.5 -122.5t47.5 -124.5h-83q0 14 -6.5 35.5t-22.5 51.5t-50.5 61
t-82.5 53q-35 -14 -66 -16v-185h-69z" />
    <glyph glyph-name="uni045D" unicode="&#x45d;" horiz-adv-x="542" 
d="M325 581l-236 119l35 60l221 -145zM65 0v479h69v-400l258 400h86v-479h-69v395l-255 -395h-89z" />
    <glyph glyph-name="afii10110" unicode="&#x45e;" horiz-adv-x="466" 
d="M254 580h-27q-61 0 -100 18.5t-39 48.5q0 20 22 45h40q-7 -19 -7 -28q0 -22 21 -30t63 -8h27q42 0 63 8t21 30q0 12 -6 28h40q21 -24 21 -45q0 -30 -39 -48.5t-100 -18.5zM233 90l157 389h76l-278 -684h-74l82 204l-195 480h76z" />
    <glyph glyph-name="afii10193" unicode="&#x45f;" horiz-adv-x="542" 
d="M478 479v-479h-171v-84h-69v84h-173v479h69v-416h275v416h69z" />
    <glyph glyph-name="uni048A" unicode="&#x48a;" horiz-adv-x="685" 
d="M314 736q-79 0 -108.5 26t-29.5 86h61q0 -37 15.5 -51.5t61.5 -14.5h27q46 0 62.5 14.5t16.5 51.5h60q0 -60 -30 -86t-109 -26h-27zM594 0h-108v570l-329 -570h-76v698h76v-572l329 572h77v-665h127l-110 -201h-48z" />
    <glyph glyph-name="uni048B" unicode="&#x48b;" horiz-adv-x="600" 
d="M65 0v479h69v-400l258 400h86v-446h127l-110 -201h-48l62 168h-100v395l-255 -395h-89zM257 581q-79 0 -108.5 25.5t-29.5 85.5h60q0 -37 16 -51t62 -14h27q46 0 62 14t16 51h61q0 -60 -30 -85.5t-109 -25.5h-27z" />
    <glyph glyph-name="uni048C" unicode="&#x48c;" horiz-adv-x="614" 
d="M202 346v-283h146q69 0 115 37t46 105t-45.5 104.5t-115.5 36.5h-146zM202 524v-114h146q98 0 171.5 -53t73.5 -152t-72.5 -152t-170.5 -53h-225v524h-100v57h100v117h77v-117h107v-57h-107z" />
    <glyph glyph-name="uni048D" unicode="&#x48d;" horiz-adv-x="495" 
d="M165 254v-191h88q68 0 105.5 24t37.5 72q0 95 -143 95h-88zM165 416v-99h88q100 0 160.5 -41t60.5 -117q0 -77 -59.5 -118t-159.5 -41h-160v416h-67v63h67v102h70v-102h76v-63h-76z" />
    <glyph glyph-name="uni048E" unicode="&#x48e;" horiz-adv-x="586" 
d="M158 634v-282h146q31 0 60 8l-68 72l53 43l67 -89q49 39 49 107t-45.5 104.5t-115.5 36.5h-146zM81 0v698h223q98 0 171.5 -53t73.5 -152q0 -108 -90 -164l48 -65l-31 -25l-63 67q-51 -18 -107 -18h-148v-288h-77z" />
    <glyph glyph-name="uni048F" unicode="&#x48f;" horiz-adv-x="575" 
d="M134 240q0 -79 50.5 -136t117.5 -57q37 0 78 24l-78 83l53 43l67 -89q48 58 48 132q0 79 -50.5 135.5t-117.5 56.5t-117.5 -56.5t-50.5 -135.5zM134 65v-269h-69v683h69v-63q73 80 168 80q91 0 164.5 -76.5t73.5 -179.5q0 -106 -78 -186l51 -68l-31 -26l-58 63
q-58 -39 -120 -39q-95 0 -170 81z" />
    <glyph glyph-name="afii10050" unicode="&#x490;" horiz-adv-x="476" 
d="M158 634v-634h-77v698h314v83h77v-147h-314z" />
    <glyph glyph-name="afii10098" unicode="&#x491;" horiz-adv-x="374" 
d="M65 0v479h232v84h77v-147h-240v-416h-69z" />
    <glyph glyph-name="uni0492" unicode="&#x492;" horiz-adv-x="480" 
d="M16 423v56h68v219h391v-64h-314v-155h140v-56h-140v-423h-77v423h-68z" />
    <glyph glyph-name="uni0493" unicode="&#x493;" horiz-adv-x="384" 
d="M11 255v56h62v168h309v-63h-240v-105h106v-56h-106v-255h-69v255h-62z" />
    <glyph glyph-name="uni0494" unicode="&#x494;" horiz-adv-x="565" 
d="M81 0v698h391v-64h-314v-254q59 56 146 56q102 0 162.5 -65t60.5 -184q0 -137 -49 -198.5t-165 -61.5v63q78 0 106 41t28 156q0 83 -38 132t-105 49q-59 0 -98 -47.5t-48 -119.5v-201h-77z" />
    <glyph glyph-name="uni0495" unicode="&#x495;" horiz-adv-x="464" 
d="M65 0v479h309v-63h-240v-115q46 43 116 43q85 0 132.5 -54.5t47.5 -156.5q0 -116 -42 -168.5t-140 -52.5v53q57 0 85 37t28 131q0 153 -111 153q-56 0 -86 -49t-30 -122v-115h-69z" />
    <glyph glyph-name="uni0496" unicode="&#x496;" horiz-adv-x="935" 
d="M43 623q0 17 1 38.5t1 36.5q58 0 101 -28.5t69.5 -71t51 -86t60.5 -79.5t82 -46v311h76v-311q46 10 82 46t60.5 79.5t51 86t69.5 71t101 28.5q0 -15 1 -36.5t1 -38.5q-39 0 -71.5 -26t-52 -59.5t-49 -81t-57.5 -75.5q81 -67 147.5 -156t91.5 -164h70v-245h-41l-24 184
h-87q0 67 -56 158.5t-165 175.5q-36 -18 -72 -23v-311h-76v311q-36 5 -72 23q-109 -84 -165 -175.5t-56 -158.5h-93q0 74 74 185t176 196q-28 28 -57.5 75.5t-49 81t-52 59.5t-71.5 26z" />
    <glyph glyph-name="uni0497" unicode="&#x497;" horiz-adv-x="789" 
d="M48 403q0 17 0.5 39t0.5 37q46 0 78.5 -14.5t49 -37t32.5 -49t28.5 -51t38 -43t60.5 -24.5v219h72v-219q35 6 60.5 24.5t38 43t28.5 51t32 49t48.5 37t78.5 14.5q0 -15 0.5 -37t0.5 -39q-42 0 -66.5 -22.5t-49 -67.5t-43.5 -66q118 -65 167 -186h71v-245h-41l-22 184h-76
q0 14 -7 35.5t-22.5 51.5t-50.5 61t-83 53q-36 -14 -64 -16v-185h-72v185q-30 2 -65 16q-48 -22 -82.5 -53t-50.5 -61t-22.5 -51.5t-6.5 -35.5h-83q0 51 47.5 124.5t134.5 122.5q-17 19 -36 51t-31.5 52.5t-36.5 36.5t-56 16z" />
    <glyph glyph-name="uni0498" unicode="&#x498;" horiz-adv-x="528" 
d="M379 374q103 -48 103 -167q0 -95 -53.5 -152t-143.5 -68l-28 -57q55 0 82.5 -18t27.5 -40q0 -77 -210 -77v28q51 0 97 11.5t46 31.5q0 10 -7.5 16t-32 9.5t-71.5 3.5l42 89q-82 1 -132.5 26t-87.5 71l55 43q50 -71 175 -71q70 0 117.5 40.5t47.5 96.5q0 64 -50 104.5
t-138 40.5v68q86 0 125 34t39 86q0 49 -35 85.5t-91 36.5q-42 0 -85.5 -12.5t-67.5 -40.5l-51 48q35 37 93 55.5t111 18.5q88 0 145.5 -48t57.5 -143q0 -98 -80 -149z" />
    <glyph glyph-name="uni0499" unicode="&#x499;" horiz-adv-x="434" 
d="M179 227v64q105 8 105 62q0 73 -80 73q-46 0 -109 -76l-48 41q3 4 16 19.5t17.5 20.5t17 17.5t21.5 17t22.5 11.5t29 9.5t33.5 2.5q71 0 114 -36t43 -100q0 -55 -55 -87q94 -42 94 -129q0 -64 -51 -103.5t-120 -43.5l-28 -60q55 0 82 -18t27 -40q0 -77 -210 -77v28
q51 0 97.5 11.5t46.5 31.5q0 10 -7.5 16t-32 9.5t-71.5 3.5l45 97q-40 4 -73 19.5t-47.5 28t-38.5 36.5l46 45q68 -68 149 -68q44 0 76.5 24t32.5 60q0 90 -144 90z" />
    <glyph glyph-name="uni049A" unicode="&#x49a;" horiz-adv-x="605" 
d="M81 0v698h77v-311q46 10 82 46t60 79.5t51 86t69.5 71t100.5 28.5q0 -15 1 -36.5t1 -38.5q-39 0 -71.5 -26t-52 -59.5t-49 -81t-57.5 -75.5q81 -67 147.5 -156t91.5 -164h67v-245h-41l-22 184h-85q0 66 -56.5 158t-165.5 176q-36 -18 -71 -23v-311h-77z" />
    <glyph glyph-name="uni049B" unicode="&#x49b;" horiz-adv-x="516" 
d="M65 0v479h69v-219q35 6 60.5 24.5t38.5 43t29 51t32.5 49t49 37t78.5 14.5q0 -15 0.5 -37t0.5 -39q-32 0 -56 -16t-36.5 -36.5t-31.5 -52.5t-36 -51q119 -66 168 -186h70v-245h-41l-23 184h-75q0 14 -6.5 35.5t-22.5 51.5t-50.5 61t-82.5 53q-35 -14 -66 -16v-185h-69z
" />
    <glyph glyph-name="uni049C" unicode="&#x49c;" horiz-adv-x="565" 
d="M202 581h51v-135q20 23 42.5 61t41 68t43.5 60t60.5 46.5t80.5 16.5q0 -15 1 -36.5t1 -38.5q-39 0 -71.5 -26t-52 -59.5t-49 -81t-57.5 -75.5q102 -85 176.5 -196t74.5 -185h-93q0 62 -50.5 148t-147.5 167v-136h-51v144q-25 -10 -44 -12v-311h-77v698h77v-311
q22 4 44 16v178z" />
    <glyph glyph-name="uni049D" unicode="&#x49d;" horiz-adv-x="471" 
d="M168 424h46v-122q14 16 29 43t27.5 48t30.5 42t48.5 32.5t72.5 11.5q0 -15 0.5 -37t0.5 -39q-32 0 -56 -16t-36.5 -36.5t-31.5 -52.5t-36 -51q87 -49 134.5 -122.5t47.5 -124.5h-83q0 14 -6 34t-20.5 48.5t-46 58.5t-75.5 53v-137h-46v133q-19 -4 -34 -5v-185h-69v479h69
v-219q20 3 34 9v155z" />
    <glyph glyph-name="uni049E" unicode="&#x49e;" horiz-adv-x="568" 
d="M16 524v57h68v117h77v-117h75v-57h-75v-137q46 10 82 46t60 79.5t51 86t69.5 71t100.5 28.5q0 -15 1 -36.5t1 -38.5q-39 0 -71.5 -26t-52 -59.5t-49 -81t-57.5 -75.5q102 -85 176.5 -196t74.5 -185h-93q0 66 -56.5 158t-165.5 176q-36 -18 -71 -23v-311h-77v524h-68z" />
    <glyph glyph-name="uni049F" unicode="&#x49f;" horiz-adv-x="471" 
d="M-3 524v57h68v162h69v-162h70v-57h-70v-264q35 6 60.5 24.5t38.5 43t29 51t32.5 49t49 37t78.5 14.5q0 -15 0.5 -37t0.5 -39q-32 0 -56 -16t-36.5 -36.5t-31.5 -52.5t-36 -51q87 -49 134.5 -122.5t47.5 -124.5h-83q0 14 -6.5 35.5t-22.5 51.5t-50.5 61t-82.5 53
q-35 -14 -66 -16v-185h-69v524h-68z" />
    <glyph glyph-name="uni04A0" unicode="&#x4a0;" horiz-adv-x="681" 
d="M19 698h255v-311q46 10 82 46t60.5 79.5t51 86t69.5 71t101 28.5q0 -15 1 -36.5t1 -38.5q-39 0 -71.5 -26t-52 -59.5t-49 -81t-57.5 -75.5q102 -85 176 -196t74 -185h-93q0 67 -56 158.5t-165 175.5q-36 -18 -72 -23v-311h-76v639h-179v59z" />
    <glyph glyph-name="uni04A1" unicode="&#x4a1;" horiz-adv-x="530" 
d="M5 479h189v-219q35 6 60.5 24.5t38.5 43t28.5 51t32 49t49 37t78.5 14.5q0 -15 0.5 -37t0.5 -39q-42 0 -66.5 -22.5t-49 -67.5t-43.5 -66q87 -49 134.5 -122.5t47.5 -124.5h-83q0 14 -7 35.5t-22.5 51.5t-50.5 61t-83 53q-35 -14 -65 -16v-185h-70v420h-119v59z" />
    <glyph glyph-name="uni04A2" unicode="&#x4a2;" horiz-adv-x="637" 
d="M81 0v698h77v-302h307v302h77v-637h59v-245h-41l-22 184h-73v333h-307v-333h-77z" />
    <glyph glyph-name="uni04A3" unicode="&#x4a3;" horiz-adv-x="566" 
d="M65 0v479h69v-198h275v198h69v-418h60v-245h-41l-23 184h-65v217h-275v-217h-69z" />
    <glyph glyph-name="uni04A4" unicode="&#x4a4;" horiz-adv-x="860" 
d="M81 0v698h77v-302h306v302h391v-64h-313v-634h-78v333h-306v-333h-77z" />
    <glyph glyph-name="uni04A5" unicode="&#x4a5;" horiz-adv-x="718" 
d="M65 0v479h69v-198h275v198h309v-63h-240v-416h-69v217h-275v-217h-69z" />
    <glyph glyph-name="uni04A6" unicode="&#x4a6;" horiz-adv-x="942" 
d="M81 0v698h461v-320q58 58 148 58q102 0 162.5 -65t60.5 -184q0 -137 -49 -198.5t-165 -61.5v63q78 0 106.5 41t28.5 156q0 83 -38.5 132t-105.5 49q-66 0 -107 -59t-41 -143v-166h-77v635h-307v-635h-77z" />
    <glyph glyph-name="uni04A7" unicode="&#x4a7;" horiz-adv-x="803" 
d="M65 0v479h413v-178q46 43 116 43q85 0 132.5 -54.5t47.5 -156.5q0 -116 -42 -168.5t-140 -52.5v53q57 0 85.5 37.5t28.5 130.5q0 72 -27.5 112.5t-84.5 40.5q-56 0 -86 -49t-30 -122v-115h-69v416h-275v-416h-69z" />
    <glyph glyph-name="uni04A8" unicode="&#x4a8;" horiz-adv-x="793" 
d="M722 120l70 -40q-20 -43 -66.5 -69.5t-103.5 -26.5q-76 0 -139 44q-67 -44 -149 -44q-126 0 -207 106.5t-81 257.5q0 113 56.5 207t142.5 135l34 -61q-67 -31 -109.5 -109.5t-42.5 -171.5q0 -119 58.5 -206.5t148.5 -87.5q48 0 94 26q-92 115 -92 335q0 138 39.5 218.5
t111.5 80.5q70 0 114.5 -73t44.5 -226q0 -216 -101 -334q41 -27 77 -27q28 0 58 18.5t42 47.5zM490 136q75 98 75 279q0 113 -23.5 170.5t-54.5 57.5q-28 0 -49 -67t-21 -161q0 -177 73 -279z" />
    <glyph glyph-name="uni04A9" unicode="&#x4a9;" horiz-adv-x="641" 
d="M639 33q-62 -49 -163 -49q-53 0 -99 23q-52 -23 -120 -23q-89 0 -155 75.5t-66 180.5q0 79 45 143.5t112 94.5l27 -56q-50 -20 -82.5 -70t-32.5 -112q0 -81 42.5 -137t107.5 -56q32 0 59 9q-70 79 -70 208q0 87 34.5 159t98.5 72q63 0 98.5 -62.5t35.5 -168.5
q0 -139 -72 -213q22 -4 35 -4q70 0 119 43zM372 88q69 58 69 176q0 83 -14 125t-48 42q-23 0 -44.5 -48t-21.5 -119q0 -117 59 -176z" />
    <glyph glyph-name="uni04AA" unicode="&#x4aa;" horiz-adv-x="588" 
d="M302 -15q-108 13 -182 118t-74 245q0 149 82.5 257.5t199.5 108.5q127 0 220 -144l-61 -43q-71 117 -159 117q-89 0 -146.5 -88t-57.5 -208t57 -207t147 -87q96 0 166 129l66 -36q-84 -145 -206 -161l-27 -56q55 0 82.5 -18t27.5 -40q0 -77 -210 -77v28q51 0 97 11.5
t46 31.5q0 10 -7 16t-31.5 9.5t-71.5 3.5z" />
    <glyph glyph-name="uni04AB" unicode="&#x4ab;" horiz-adv-x="490" 
d="M252 -15q-85 10 -150.5 84.5t-65.5 170.5q0 103 73 179.5t164 76.5q50 0 98.5 -26.5t83.5 -70.5l-52 -40q-52 73 -130 73q-67 0 -117.5 -56.5t-50.5 -135.5t50.5 -136t117.5 -57q53 0 82.5 16t56.5 51l54 -38q-67 -84 -162 -91l-26 -55q55 0 82 -18t27 -40
q0 -77 -210 -77v28q51 0 97.5 11.5t46.5 31.5q0 10 -7.5 16t-32 9.5t-71.5 3.5z" />
    <glyph glyph-name="uni04AC" unicode="&#x4ac;" horiz-adv-x="516" 
d="M19 635v63h476v-63h-200v-574h58v-245h-41l-22 184h-71v635h-200z" />
    <glyph glyph-name="uni04AD" unicode="&#x4ad;" horiz-adv-x="447" 
d="M252 0h-65v416h-185v63h440v-63h-185v-355h58v-245h-41z" />
    <glyph glyph-name="uni04AE" unicode="&#x4ae;" horiz-adv-x="484" 
d="M243 442l153 256h89l-205 -343v-355h-76v358l-204 340h89z" />
    <glyph glyph-name="uni04AF" unicode="&#x4af;" horiz-adv-x="466" 
d="M233 90l157 389h76l-198 -486v-198h-69v197l-198 487h76z" />
    <glyph glyph-name="uni04B0" unicode="&#x4b0;" horiz-adv-x="484" 
d="M106 241v56h98v61l-204 340h89l154 -256l153 256h89l-205 -343v-58h101v-56h-101v-241h-76v241h-98z" />
    <glyph glyph-name="uni04B1" unicode="&#x4b1;" horiz-adv-x="472" 
d="M99 -56v56h100l-195 479h76l157 -389l156 389h76l-195 -479h100v-56h-103v-149h-69v149h-103z" />
    <glyph glyph-name="uni04B2" unicode="&#x4b2;" horiz-adv-x="507" 
d="M424 0h-23l-147 276l-146 -276h-86l189 357l-181 341h86l138 -261l139 261h86l-182 -341l190 -357v-184h-41z" />
    <glyph glyph-name="uni04B3" unicode="&#x4b3;" horiz-adv-x="424" 
d="M171 250l-143 229h82l102 -164l102 164h83l-143 -229l156 -250v-184h-41l-23 184h-19l-115 183l-115 -183h-82z" />
    <glyph glyph-name="uni04B4" unicode="&#x4b4;" horiz-adv-x="833" 
d="M19 635v63h476v-63h-199v-572h348v635h77v-635h73v-147h-77v84h-498v635h-200z" />
    <glyph glyph-name="uni04B5" unicode="&#x4b5;" horiz-adv-x="688" 
d="M659 63v-147h-69v84h-403v416h-185v63h440v-63h-185v-353h274v416h70v-416h58z" />
    <glyph glyph-name="uni04B6" unicode="&#x4b6;" horiz-adv-x="612" 
d="M440 537v161h78v-637h56v-245h-40l-23 184h-71v334q-66 -66 -165 -66q-108 0 -175 77.5t-67 191.5v161h77v-161q0 -84 44.5 -144t120.5 -60t120.5 60t44.5 144z" />
    <glyph glyph-name="uni04B7" unicode="&#x4b7;" horiz-adv-x="505" 
d="M28 355v124h68v-124q0 -56 32.5 -92.5t95.5 -36.5t94.5 53.5t31.5 138.5v61h71v-418h55v-245h-41l-22 184h-63v212q-50 -50 -126 -50q-90 0 -143 51t-53 142z" />
    <glyph glyph-name="uni04B8" unicode="&#x4b8;" horiz-adv-x="599" 
d="M247 465h61v-129q62 12 97 69t35 132v161h78v-698h-78v334q-55 -55 -132 -64v-100h-61v100q-97 10 -155.5 85.5t-58.5 181.5v161h77v-161q0 -75 36.5 -133t100.5 -69v130z" />
    <glyph glyph-name="uni04B9" unicode="&#x4b9;" horiz-adv-x="485" 
d="M196 350h61v-120q47 13 70 64t23 124v61h71v-479h-71v212q-38 -38 -93 -47v-93h-61v91q-77 8 -122.5 58.5t-45.5 133.5v124h68v-124q0 -49 25.5 -84t74.5 -43v122z" />
    <glyph glyph-name="uni04BA" unicode="&#x4ba;" horiz-adv-x="607" 
d="M159 226v-226h-78v698h78v-269q66 66 165 66q108 0 175 -77.5t67 -191.5v-226h-77v226q0 84 -44.5 144t-120.5 60t-120.5 -60t-44.5 -144z" />
    <glyph glyph-name="uni04BB" unicode="&#x4bb;" horiz-adv-x="547" 
d="M488 303v-303h-69v303q0 54 -39.5 91.5t-103.5 37.5t-103 -55t-39 -137v-240h-69v743h69v-308q59 61 142 61q92 0 152 -51.5t60 -141.5z" />
    <glyph glyph-name="uni04BC" unicode="&#x4bc;" horiz-adv-x="741" 
d="M690 147q-94 -163 -232 -163q-117 0 -199.5 107.5t-82.5 256.5q0 22 1 32q-86 4 -119 56.5t-33 202.5h65q0 -114 16.5 -152.5t79.5 -42.5q25 117 100.5 193.5t171.5 76.5q65 0 113 -26.5t74.5 -74.5t38.5 -106t12 -128h-441q-1 -10 -1 -31q0 -120 57 -207t147 -87
q96 0 166 129zM265 444h353q-10 89 -49.5 144.5t-110.5 55.5q-70 0 -121.5 -56t-71.5 -144z" />
    <glyph glyph-name="uni04BD" unicode="&#x4bd;" horiz-adv-x="669" 
d="M628 76q-37 -46 -81 -69t-110 -23q-91 0 -165 76.5t-74 179.5v12h-5q-69 0 -105 18.5t-55 75t-19 166.5h66q0 -119 19 -157t94 -38h17q25 77 89.5 128t135.5 51q93 0 145.5 -64.5t52.5 -179.5h-366v-12q0 -79 50.5 -136t117.5 -57q53 0 82 16t56 51zM283 317h279
q-22 115 -127 115q-49 0 -90 -31.5t-62 -83.5z" />
    <glyph glyph-name="uni04BE" unicode="&#x4be;" horiz-adv-x="743" 
d="M266 444h354q-10 89 -50 144.5t-111 55.5q-70 0 -121.5 -56t-71.5 -144zM426 -14q-106 16 -177.5 120.5t-71.5 241.5q0 22 1 32q-86 4 -119 56.5t-33 202.5h65q0 -114 16.5 -152.5t79.5 -42.5q25 117 100.5 193.5t171.5 76.5q65 0 113 -26.5t74.5 -74.5t38.5 -106
t12 -128h-441q-1 -10 -1 -31q0 -120 57 -207t147 -87q96 0 166 129l66 -36q-84 -146 -204 -161v-191h-61v191z" />
    <glyph glyph-name="uni04BF" unicode="&#x4bf;" horiz-adv-x="671" 
d="M284 317h279q-22 115 -127 115q-49 0 -90 -31.5t-62 -83.5zM411 -14q-84 12 -148 85.5t-64 168.5v12h-5q-69 0 -105 18.5t-55 75t-19 166.5h66q0 -119 19 -157t94 -38h17q25 77 89.5 128t135.5 51q93 0 145.5 -64.5t52.5 -179.5h-366v-12q0 -79 50.5 -136t117.5 -57
q53 0 82 16t56 51l55 -38q-64 -80 -157 -90v-191h-61v191z" />
    <glyph glyph-name="uni04C0" unicode="&#x4c0;" horiz-adv-x="238" 
d="M158 698v-698h-77v698h77z" />
    <glyph glyph-name="uni04C1" unicode="&#x4c1;" horiz-adv-x="892" 
d="M461 736h-27q-61 0 -100 18.5t-39 48.5q0 20 22 45h40q-7 -19 -7 -28q0 -22 21 -30t63 -8h27q42 0 63 8t21 30q0 12 -6 28h40q21 -24 21 -45q0 -30 -39 -48.5t-100 -18.5zM43 623q0 17 1 38.5t1 36.5q58 0 101 -28.5t69.5 -71t51 -86t60.5 -79.5t82 -46v311h76v-311
q46 10 82 46t60.5 79.5t51 86t69.5 71t101 28.5q0 -15 1 -36.5t1 -38.5q-39 0 -71.5 -26t-52 -59.5t-49 -81t-57.5 -75.5q102 -85 176 -196t74 -185h-93q0 67 -56 158.5t-165 175.5q-36 -18 -72 -23v-311h-76v311q-36 5 -72 23q-109 -84 -165 -175.5t-56 -158.5h-93
q0 74 74 185t176 196q-28 28 -57.5 75.5t-49 81t-52 59.5t-71.5 26z" />
    <glyph glyph-name="uni04C2" unicode="&#x4c2;" horiz-adv-x="743" 
d="M386 580h-27q-61 0 -100 18.5t-39 48.5q0 20 22 45h40q-7 -19 -7 -28q0 -22 21 -30t63 -8h27q42 0 63 8t21 30q0 12 -6 28h40q21 -24 21 -45q0 -30 -39 -48.5t-100 -18.5zM48 403q0 17 0.5 39t0.5 37q46 0 78.5 -14.5t49 -37t32.5 -49t28.5 -51t38 -43t60.5 -24.5v219h72
v-219q35 6 60.5 24.5t38 43t28.5 51t32 49t48.5 37t78.5 14.5q0 -15 0.5 -37t0.5 -39q-42 0 -66.5 -22.5t-49 -67.5t-43.5 -66q87 -49 134.5 -122.5t47.5 -124.5h-83q0 14 -7 35.5t-22.5 51.5t-50.5 61t-83 53q-36 -14 -64 -16v-185h-72v185q-30 2 -65 16q-48 -22 -82.5 -53
t-50.5 -61t-22.5 -51.5t-6.5 -35.5h-83q0 51 47.5 124.5t134.5 122.5q-17 19 -36 51t-31.5 52.5t-36.5 36.5t-56 16z" />
    <glyph glyph-name="uni04C3" unicode="&#x4c3;" horiz-adv-x="567" 
d="M339 -205v53q57 0 84.5 37t27.5 131q0 64 -55.5 148.5t-166.5 169.5q-36 -18 -71 -23v-311h-77v698h77v-311q46 10 82 46t60 79.5t51 86t69.5 71t100.5 28.5q0 -15 1 -36.5t1 -38.5q-39 0 -71.5 -26t-52 -59.5t-49 -81t-57.5 -75.5q104 -87 175 -189.5t71 -175.5
q0 -114 -49.5 -167.5t-150.5 -53.5z" />
    <glyph glyph-name="uni04C4" unicode="&#x4c4;" horiz-adv-x="473" 
d="M445 16q0 -114 -47 -167.5t-147 -53.5v53q56 0 83.5 37t27.5 131q0 14 -6.5 33t-22.5 46t-50.5 55.5t-82.5 50.5q-35 -14 -66 -16v-185h-69v479h69v-219q35 6 60.5 24.5t38.5 43t29 51t32.5 49t49 37t78.5 14.5q0 -15 0.5 -37t0.5 -39q-32 0 -56 -16t-36.5 -36.5
t-31.5 -52.5t-36 -51q89 -49 135.5 -116t46.5 -115z" />
    <glyph glyph-name="uni04C5" unicode="&#x4c5;" horiz-adv-x="706" 
d="M229 152q0 -63 -44 -107.5t-107 -44.5h-70v63h63q35 0 58.5 26.5t23.5 62.5v546h429v-665h127l-111 -201h-47l61 168h-107v635h-276v-483z" />
    <glyph glyph-name="uni04C6" unicode="&#x4c6;" horiz-adv-x="582" 
d="M215 152q0 -64 -41 -108t-103 -44h-70v63h62q35 0 58.5 26.5t23.5 62.5v327h313v-446h127l-111 -201h-47l61 168h-100v416h-173v-264z" />
    <glyph glyph-name="uni04C7" unicode="&#x4c7;" horiz-adv-x="621" 
d="M541 16q0 -114 -49.5 -167.5t-150.5 -53.5v53q59 0 91.5 38t32.5 130v317h-307v-333h-77v698h77v-302h307v302h77z" />
    <glyph glyph-name="uni04C8" unicode="&#x4c8;" horiz-adv-x="542" 
d="M478 16q0 -114 -49 -167.5t-150 -53.5v53q130 0 130 168v201h-275v-217h-69v479h69v-198h275v198h69v-463z" />
    <glyph glyph-name="uni04C9" unicode="&#x4c9;" horiz-adv-x="666" 
d="M81 0v698h77v-302h307v302h77v-665h127l-111 -201h-47l61 168h-107v333h-307v-333h-77z" />
    <glyph glyph-name="uni04CA" unicode="&#x4ca;" horiz-adv-x="603" 
d="M65 0v479h69v-198h275v198h69v-446h127l-110 -201h-48l62 168h-100v217h-275v-217h-69z" />
    <glyph glyph-name="uni04CB" unicode="&#x4cb;" horiz-adv-x="599" 
d="M440 537v161h78v-698h-77l-22 -184h-41v245h62v273q-66 -66 -165 -66q-108 0 -175 77.5t-67 191.5v161h77v-161q0 -84 44.5 -144t120.5 -60t120.5 60t44.5 144z" />
    <glyph glyph-name="uni04CC" unicode="&#x4cc;" horiz-adv-x="485" 
d="M28 355v124h68v-124q0 -56 32.5 -92.5t95.5 -36.5t94.5 53.5t31.5 138.5v61h71v-479h-70l-22 -184h-41v245h62v151q-50 -50 -126 -50q-90 0 -143 51t-53 142z" />
    <glyph glyph-name="uni04CD" unicode="&#x4cd;" horiz-adv-x="856" 
d="M81 0v698h83l243 -597l241 597h83v-665h127l-110 -201h-48l62 168h-107v515l-208 -515h-81l-208 514v-514h-77z" />
    <glyph glyph-name="uni04CE" unicode="&#x4ce;" horiz-adv-x="692" 
d="M603 0h-91l-36 344l-126 -344h-74l-124 344l-36 -344h-70l50 479h80l137 -378l138 378h80l48 -446h120l-110 -201h-47z" />
    <glyph glyph-name="uni04CF" unicode="&#x4cf;" horiz-adv-x="205" 
d="M141 698v-698h-76v698h76z" />
    <glyph glyph-name="uni04D0" unicode="&#x4d0;" horiz-adv-x="589" 
d="M308 736h-27q-61 0 -100 18.5t-39 48.5q0 20 22 45h40q-7 -19 -7 -28q0 -22 21 -30t63 -8h27q42 0 63 8t21 30q0 12 -6 28h40q21 -24 21 -45q0 -30 -39 -48.5t-100 -18.5zM336 696l254 -696h-82l-72 196h-282l-71 -196h-82l253 696v2h83zM295 584l-118 -325h237z" />
    <glyph glyph-name="uni04D1" unicode="&#x4d1;" 
d="M301 580h-27q-61 0 -100 18.5t-39 48.5q0 20 22 45h40q-7 -19 -7 -28q0 -22 21 -30t63 -8h27q42 0 63 8t21 30q0 12 -6 28h40q21 -24 21 -45q0 -30 -39 -48.5t-100 -18.5zM35 240q0 103 73 179.5t164 76.5q95 0 168 -80v63h70v-479h-70v62q-72 -78 -166 -78
q-91 0 -165 76.5t-74 179.5zM104 240q0 -79 50.5 -136t117.5 -57t117.5 57t50.5 136t-50.5 135.5t-117.5 56.5t-117.5 -56.5t-50.5 -135.5z" />
    <glyph glyph-name="uni04D2" unicode="&#x4d2;" horiz-adv-x="589" 
d="M339 790q0 23 16 39t39 16t40 -16t17 -39t-17 -39.5t-40 -16.5t-39 16.5t-16 39.5zM139 790q0 23 16.5 39t39.5 16t39.5 -16t16.5 -39t-16.5 -39.5t-39.5 -16.5t-39.5 16.5t-16.5 39.5zM336 696l254 -696h-82l-72 196h-282l-71 -196h-82l253 696v2h83zM295 584l-118 -325
h237z" />
    <glyph glyph-name="uni04D3" unicode="&#x4d3;" 
d="M327 628q0 23 16 39t39 16t40 -16t17 -39t-17 -39.5t-40 -16.5t-39 16.5t-16 39.5zM127 628q0 23 16.5 39t39.5 16t39.5 -16t16.5 -39t-16.5 -39.5t-39.5 -16.5t-39.5 16.5t-16.5 39.5zM35 240q0 103 73 179.5t164 76.5q95 0 168 -80v63h70v-479h-70v62q-72 -78 -166 -78
q-91 0 -165 76.5t-74 179.5zM104 240q0 -79 50.5 -136t117.5 -57t117.5 57t50.5 136t-50.5 135.5t-117.5 56.5t-117.5 -56.5t-50.5 -135.5z" />
    <glyph glyph-name="uni04D4" unicode="&#x4d4;" horiz-adv-x="790" 
d="M167 196l-106 -196h-81l376 696v2h392v-64h-316v-223h246v-63h-246v-285h319v-63h-395v196h-189zM202 259h154v286z" />
    <glyph glyph-name="uni04D5" unicode="&#x4d5;" horiz-adv-x="887" 
d="M114 365l-55 33q26 33 44.5 50.5t55 32t84.5 14.5q127 0 180 -120q34 54 88 87t111 33q91 0 164 -75.5t73 -179.5h-405q0 -79 50.5 -136t117.5 -57q51 0 84 11.5t48.5 28t33.5 46.5l56 -36q-37 -57 -85.5 -85t-134.5 -28q-93 0 -164 73q-88 -73 -247 -73q-80 0 -132.5 40
t-52.5 107q0 71 65.5 118.5t207.5 47.5q40 0 81 -12q-6 56 -42 101t-97 45q-36 0 -60.5 -9t-37 -21t-31.5 -36zM464 303h315q-18 57 -61.5 92.5t-95.5 35.5t-96 -35.5t-62 -92.5zM418 113q-32 58 -35 111q-56 13 -81 13q-97 0 -147.5 -28t-50.5 -79q0 -32 20.5 -52
t43.5 -25.5t48 -5.5q121 0 202 66z" />
    <glyph glyph-name="uni04D6" unicode="&#x4d6;" horiz-adv-x="515" 
d="M297 736h-27q-61 0 -100 18.5t-39 48.5q0 20 22 45h40q-7 -19 -7 -28q0 -22 21 -30t63 -8h27q42 0 63 8t21 30q0 12 -6 28h40q21 -24 21 -45q0 -30 -39 -48.5t-100 -18.5zM81 0v698h391v-64h-314v-223h245v-63h-245v-285h317v-63h-394z" />
    <glyph glyph-name="uni04D7" unicode="&#x4d7;" horiz-adv-x="538" 
d="M288 580h-27q-61 0 -100 18.5t-39 48.5q0 20 22 45h40q-7 -19 -7 -28q0 -22 21 -30t63 -8h27q42 0 63 8t21 30q0 12 -6 28h40q21 -24 21 -45q0 -30 -39 -48.5t-100 -18.5zM104 240q0 -79 50.5 -136t117.5 -57q73 0 106.5 20.5t60.5 66.5l56 -37q-37 -57 -86 -85t-135 -28
q-91 0 -165 76.5t-74 179.5t73 179.5t164 76.5t164.5 -76.5t73.5 -179.5h-406zM115 303h315q-18 57 -62 93t-96 36t-95.5 -36t-61.5 -93z" />
    <glyph glyph-name="uni04D8" unicode="&#x4d8;" horiz-adv-x="644" 
d="M66 550q43 75 106 119.5t134 44.5q118 0 206 -109t88 -256q0 -149 -82.5 -257t-199.5 -108q-131 0 -207.5 97t-76.5 237h487q1 10 1 31q0 118 -62.5 206t-153.5 88q-104 0 -174 -129zM511 253h-396q19 -85 74.5 -142.5t128.5 -57.5q70 0 121.5 56t71.5 144z" />
    <glyph glyph-name="afii10846" unicode="&#x4d9;" horiz-adv-x="539" 
d="M436 240q0 79 -50.5 136t-117.5 57q-73 0 -106.5 -20.5t-60.5 -66.5l-56 37q37 57 86 85t135 28q91 0 165 -76.5t74 -179.5t-73 -179.5t-164 -76.5t-164.5 76.5t-73.5 179.5h406zM427 177h-317q18 -57 62 -93t96 -36t96.5 36t62.5 93z" />
    <glyph glyph-name="uni04DA" unicode="&#x4da;" horiz-adv-x="644" 
d="M351 790q0 23 16 39t39 16t40 -16t17 -39t-17 -39.5t-40 -16.5t-39 16.5t-16 39.5zM151 790q0 23 16.5 39t39.5 16t39.5 -16t16.5 -39t-16.5 -39.5t-39.5 -16.5t-39.5 16.5t-16.5 39.5zM66 550q43 75 106 119.5t134 44.5q118 0 206 -109t88 -256q0 -149 -82.5 -257
t-199.5 -108q-131 0 -207.5 97t-76.5 237h487q1 10 1 31q0 118 -62.5 206t-153.5 88q-104 0 -174 -129zM511 253h-396q19 -85 74.5 -142.5t128.5 -57.5q70 0 121.5 56t71.5 144z" />
    <glyph glyph-name="uni04DB" unicode="&#x4db;" horiz-adv-x="539" 
d="M312 628q0 23 16 39t39 16t40 -16t17 -39t-17 -39.5t-40 -16.5t-39 16.5t-16 39.5zM112 628q0 23 16.5 39t39.5 16t39.5 -16t16.5 -39t-16.5 -39.5t-39.5 -16.5t-39.5 16.5t-16.5 39.5zM436 240q0 79 -50.5 136t-117.5 57q-73 0 -106.5 -20.5t-60.5 -66.5l-56 37
q37 57 86 85t135 28q91 0 165 -76.5t74 -179.5t-73 -179.5t-164 -76.5t-164.5 76.5t-73.5 179.5h406zM427 177h-317q18 -57 62 -93t96 -36t96.5 36t62.5 93z" />
    <glyph glyph-name="uni04DC" unicode="&#x4dc;" horiz-adv-x="892" 
d="M491 790q0 23 16 39t39 16t39.5 -16t16.5 -39t-16.5 -39.5t-39.5 -16.5t-39 16.5t-16 39.5zM291 790q0 23 16 39t39 16t40 -16t17 -39t-17 -39.5t-40 -16.5t-39 16.5t-16 39.5zM43 623q0 17 1 38.5t1 36.5q58 0 101 -28.5t69.5 -71t51 -86t60.5 -79.5t82 -46v311h76v-311
q46 10 82 46t60.5 79.5t51 86t69.5 71t101 28.5q0 -15 1 -36.5t1 -38.5q-39 0 -71.5 -26t-52 -59.5t-49 -81t-57.5 -75.5q102 -85 176 -196t74 -185h-93q0 67 -56 158.5t-165 175.5q-36 -18 -72 -23v-311h-76v311q-36 5 -72 23q-109 -84 -165 -175.5t-56 -158.5h-93
q0 74 74 185t176 196q-28 28 -57.5 75.5t-49 81t-52 59.5t-71.5 26z" />
    <glyph glyph-name="uni04DD" unicode="&#x4dd;" horiz-adv-x="743" 
d="M415 628q0 23 16 39t39 16t39.5 -16t16.5 -39t-16.5 -39.5t-39.5 -16.5t-39 16.5t-16 39.5zM215 628q0 23 16 39t39 16t40 -16t17 -39t-17 -39.5t-40 -16.5t-39 16.5t-16 39.5zM48 403q0 17 0.5 39t0.5 37q46 0 78.5 -14.5t49 -37t32.5 -49t28.5 -51t38 -43t60.5 -24.5
v219h72v-219q35 6 60.5 24.5t38 43t28.5 51t32 49t48.5 37t78.5 14.5q0 -15 0.5 -37t0.5 -39q-42 0 -66.5 -22.5t-49 -67.5t-43.5 -66q87 -49 134.5 -122.5t47.5 -124.5h-83q0 14 -7 35.5t-22.5 51.5t-50.5 61t-83 53q-36 -14 -64 -16v-185h-72v185q-30 2 -65 16
q-48 -22 -82.5 -53t-50.5 -61t-22.5 -51.5t-6.5 -35.5h-83q0 51 47.5 124.5t134.5 122.5q-17 19 -36 51t-31.5 52.5t-36.5 36.5t-56 16z" />
    <glyph glyph-name="uni04DE" unicode="&#x4de;" horiz-adv-x="525" 
d="M301 790q0 23 16 39t39 16t39.5 -16t16.5 -39t-16.5 -39.5t-39.5 -16.5t-39 16.5t-16 39.5zM101 790q0 23 16 39t39 16t40 -16t17 -39t-17 -39.5t-40 -16.5t-39 16.5t-16 39.5zM378 374q103 -48 103 -167q0 -106 -66.5 -164.5t-174.5 -58.5q-87 0 -139.5 24.5t-90.5 72.5
l55 43q50 -71 175 -71q70 0 117 40.5t47 96.5q0 64 -49.5 104.5t-137.5 40.5v68q86 0 125 34t39 86q0 49 -35 85.5t-91 36.5q-42 0 -85.5 -12.5t-67.5 -40.5l-51 48q35 37 93 55.5t111 18.5q88 0 145.5 -48t57.5 -143q0 -98 -80 -149z" />
    <glyph glyph-name="uni04DF" unicode="&#x4df;" horiz-adv-x="433" 
d="M249 628q0 23 16 39t39 16t39.5 -16t16.5 -39t-16.5 -39.5t-39.5 -16.5t-39 16.5t-16 39.5zM49 628q0 23 16 39t39 16t40 -16t17 -39t-17 -39.5t-40 -16.5t-39 16.5t-16 39.5zM179 227v64q105 8 105 62q0 73 -80 73q-46 0 -109 -76l-48 41q3 4 16 19.5t17.5 20.5t17 17.5
t21.5 17t22.5 11.5t29 9.5t33.5 2.5q71 0 114 -36t43 -100q0 -55 -55 -87q94 -42 94 -129q0 -68 -56 -107.5t-128 -39.5q-40 0 -71.5 7t-56 22.5t-36.5 25.5t-33 31l46 45q68 -68 149 -68q44 0 76.5 24t32.5 60q0 90 -144 90z" />
    <glyph glyph-name="uni04E0" unicode="&#x4e0;" horiz-adv-x="543" 
d="M36 635v63h436v-76l-207 -197q108 -21 171.5 -80.5t63.5 -133.5q0 -227 -242 -227q-87 0 -139 24.5t-90 72.5l54 43q50 -71 175 -71q80 0 122.5 41t42.5 101q0 67 -68.5 119t-186.5 52v68l200 201h-332z" />
    <glyph glyph-name="uni04E1" unicode="&#x4e1;" horiz-adv-x="408" 
d="M13 416v63h336v-63l-192 -213q122 -16 176.5 -74t54.5 -129q0 -100 -60 -152.5t-155 -52.5q-97 0 -176 79l45 44q61 -61 134 -61q66 0 104 37t38 106q0 52 -60.5 97.5t-178.5 45.5v64l188 209h-254z" />
    <glyph glyph-name="uni04E2" unicode="&#x4e2;" horiz-adv-x="644" 
d="M183 789h274v-46h-274v46zM563 0h-77v570l-329 -570h-76v698h76v-572l329 572h77v-698z" />
    <glyph glyph-name="uni04E3" unicode="&#x4e3;" horiz-adv-x="542" 
d="M136 627h274v-46h-274v46zM65 0v479h69v-400l258 400h86v-479h-69v395l-255 -395h-89z" />
    <glyph glyph-name="uni04E4" unicode="&#x4e4;" horiz-adv-x="644" 
d="M366 790q0 23 16 39t39 16t39.5 -16t16.5 -39t-16.5 -39.5t-39.5 -16.5t-39 16.5t-16 39.5zM166 790q0 23 16 39t39 16t40 -16t17 -39t-17 -39.5t-40 -16.5t-39 16.5t-16 39.5zM563 0h-77v570l-329 -570h-76v698h76v-572l329 572h77v-698z" />
    <glyph glyph-name="uni04E5" unicode="&#x4e5;" horiz-adv-x="542" 
d="M319 628q0 23 16 39t39 16t39.5 -16t16.5 -39t-16.5 -39.5t-39.5 -16.5t-39 16.5t-16 39.5zM119 628q0 23 16 39t39 16t40 -16t17 -39t-17 -39.5t-40 -16.5t-39 16.5t-16 39.5zM65 0v479h69v-400l258 400h86v-479h-69v395l-255 -395h-89z" />
    <glyph glyph-name="uni04E6" unicode="&#x4e6;" horiz-adv-x="689" 
d="M388 790q0 23 16 39t39 16t40 -16t17 -39t-17 -39.5t-40 -16.5t-39 16.5t-16 39.5zM188 790q0 23 16.5 39t39.5 16t39.5 -16t16.5 -39t-16.5 -39.5t-39.5 -16.5t-39.5 16.5t-16.5 39.5zM124 348q0 -117 64 -205.5t155 -88.5t155 88.5t64 205.5q0 118 -64 207t-155 89
t-155 -89t-64 -207zM43 348q0 147 90.5 256.5t209.5 109.5t209.5 -109.5t90.5 -256.5t-90.5 -255.5t-209.5 -108.5t-209.5 108.5t-90.5 255.5z" />
    <glyph glyph-name="uni04E7" unicode="&#x4e7;" horiz-adv-x="562" 
d="M317 628q0 23 16 39t39 16t39.5 -16t16.5 -39t-16.5 -39.5t-39.5 -16.5t-39 16.5t-16 39.5zM117 628q0 23 16 39t39 16t40 -16t17 -39t-17 -39.5t-40 -16.5t-39 16.5t-16 39.5zM104 240q0 -79 50.5 -136t117.5 -57t117.5 57t50.5 136t-50.5 135.5t-117.5 56.5
t-117.5 -56.5t-50.5 -135.5zM35 240q0 103 73 179.5t164 76.5t164.5 -76.5t73.5 -179.5q0 -104 -72.5 -180t-163.5 -76t-165 76.5t-74 179.5z" />
    <glyph glyph-name="uni04E8" unicode="&#x4e8;" horiz-adv-x="686" 
d="M43 348q0 147 90.5 256.5t209.5 109.5t209.5 -109.5t90.5 -256.5t-90.5 -255.5t-209.5 -108.5t-209.5 108.5t-90.5 255.5zM125 381h436q-9 108 -71.5 185.5t-146.5 77.5t-146.5 -78t-71.5 -185zM561 317h-436q8 -108 70.5 -185.5t147.5 -77.5t147 77.5t71 185.5z" />
    <glyph glyph-name="uni04E9" unicode="&#x4e9;" horiz-adv-x="544" 
d="M35 240q0 103 73 179.5t164 76.5t164.5 -76.5t73.5 -179.5q0 -104 -72.5 -180t-163.5 -76t-165 76.5t-74 179.5zM108 273h329q-10 67 -58 113t-107 46t-106 -45.5t-58 -113.5zM438 210h-332q10 -69 58 -116t108 -47t108 47t58 116z" />
    <glyph glyph-name="uni04EA" unicode="&#x4ea;" horiz-adv-x="686" 
d="M386 790q0 23 16 39t39 16t39.5 -16t16.5 -39t-16.5 -39.5t-39.5 -16.5t-39 16.5t-16 39.5zM186 790q0 23 16 39t39 16t40 -16t17 -39t-17 -39.5t-40 -16.5t-39 16.5t-16 39.5zM43 348q0 147 90.5 256.5t209.5 109.5t209.5 -109.5t90.5 -256.5t-90.5 -255.5
t-209.5 -108.5t-209.5 108.5t-90.5 255.5zM125 381h436q-9 108 -71.5 185.5t-146.5 77.5t-146.5 -78t-71.5 -185zM561 317h-436q8 -108 70.5 -185.5t147.5 -77.5t147 77.5t71 185.5z" />
    <glyph glyph-name="uni04EB" unicode="&#x4eb;" horiz-adv-x="544" 
d="M318 628q0 23 16 39t39 16t39.5 -16t16.5 -39t-16.5 -39.5t-39.5 -16.5t-39 16.5t-16 39.5zM118 628q0 23 16 39t39 16t40 -16t17 -39t-17 -39.5t-40 -16.5t-39 16.5t-16 39.5zM35 240q0 103 73 179.5t164 76.5t164.5 -76.5t73.5 -179.5q0 -104 -72.5 -180t-163.5 -76
t-165 76.5t-74 179.5zM108 273h329q-10 67 -58 113t-107 46t-106 -45.5t-58 -113.5zM438 210h-332q10 -69 58 -116t108 -47t108 47t58 116z" />
    <glyph glyph-name="uni04EC" unicode="&#x4ec;" horiz-adv-x="586" 
d="M308 790q0 23 16 39t39 16t39.5 -16t16.5 -39t-16.5 -39.5t-39.5 -16.5t-39 16.5t-16 39.5zM108 790q0 23 16 39t39 16t40 -16t17 -39t-17 -39.5t-40 -16.5t-39 16.5t-16 39.5zM28 147l66 36q70 -129 166 -129q83 0 139 76.5t64 186.5h-272v64h272q-8 109 -64 186
t-139 77q-89 0 -160 -117l-60 43q93 144 220 144q117 0 199.5 -108.5t82.5 -257.5t-82.5 -256.5t-199.5 -107.5q-138 0 -232 163z" />
    <glyph glyph-name="uni04ED" unicode="&#x4ed;" horiz-adv-x="484" 
d="M256 628q0 23 16 39t39 16t39.5 -16t16.5 -39t-16.5 -39.5t-39.5 -16.5t-39 16.5t-16 39.5zM56 628q0 23 16 39t39 16t40 -16t17 -39t-17 -39.5t-40 -16.5t-39 16.5t-16 39.5zM19 76l55 38q27 -35 56 -51t82 -16q62 0 111 49t56 121h-246v64h243q-13 65 -59.5 108
t-104.5 43q-78 0 -130 -73l-51 40q35 44 83 70.5t98 26.5q91 0 164.5 -76.5t73.5 -179.5t-74.5 -179.5t-165.5 -76.5q-66 0 -110 23t-81 69z" />
    <glyph glyph-name="uni04EE" unicode="&#x4ee;" horiz-adv-x="457" 
d="M101 789h274v-46h-274v46zM457 698l-187 -542q-53 -156 -217 -156v63q102 0 137 100l21 58l-193 477h83l148 -367l127 367h81z" />
    <glyph glyph-name="uni04EF" unicode="&#x4ef;" horiz-adv-x="466" 
d="M99 627h274v-46h-274v46zM233 90l157 389h76l-278 -684h-74l82 204l-195 480h76z" />
    <glyph glyph-name="uni04F0" unicode="&#x4f0;" horiz-adv-x="457" 
d="M282 790q0 23 16 39t39 16t39.5 -16t16.5 -39t-16.5 -39.5t-39.5 -16.5t-39 16.5t-16 39.5zM82 790q0 23 16 39t39 16t40 -16t17 -39t-17 -39.5t-40 -16.5t-39 16.5t-16 39.5zM457 698l-187 -542q-53 -156 -217 -156v63q102 0 137 100l21 58l-193 477h83l148 -367
l127 367h81z" />
    <glyph glyph-name="uni04F1" unicode="&#x4f1;" horiz-adv-x="466" 
d="M277 628q0 23 16 39t39 16t39.5 -16t16.5 -39t-16.5 -39.5t-39.5 -16.5t-39 16.5t-16 39.5zM77 628q0 23 16 39t39 16t40 -16t17 -39t-17 -39.5t-40 -16.5t-39 16.5t-16 39.5zM233 90l157 389h76l-278 -684h-74l82 204l-195 480h76z" />
    <glyph glyph-name="uni04F2" unicode="&#x4f2;" horiz-adv-x="457" 
d="M297 772l176 197l49 -49l-197 -176zM121 772l176 197l49 -49l-197 -176zM457 698l-187 -542q-53 -156 -217 -156v63q102 0 137 100l21 58l-193 477h83l148 -367l127 367h81z" />
    <glyph glyph-name="uni04F3" unicode="&#x4f3;" horiz-adv-x="466" 
d="M298 608l176 197l49 -49l-197 -176zM122 608l176 197l49 -49l-197 -176zM233 90l157 389h76l-278 -684h-74l82 204l-195 480h76z" />
    <glyph glyph-name="uni04F4" unicode="&#x4f4;" horiz-adv-x="599" 
d="M316 790q0 23 16 39t39 16t39.5 -16t16.5 -39t-16.5 -39.5t-39.5 -16.5t-39 16.5t-16 39.5zM116 790q0 23 16 39t39 16t40 -16t17 -39t-17 -39.5t-40 -16.5t-39 16.5t-16 39.5zM440 537v161h78v-698h-78v334q-66 -66 -165 -66q-108 0 -175 77.5t-67 191.5v161h77v-161
q0 -84 44.5 -144t120.5 -60t120.5 60t44.5 144z" />
    <glyph glyph-name="uni04F5" unicode="&#x4f5;" horiz-adv-x="485" 
d="M267 628q0 23 16 39t39 16t39.5 -16t16.5 -39t-16.5 -39.5t-39.5 -16.5t-39 16.5t-16 39.5zM67 628q0 23 16 39t39 16t40 -16t17 -39t-17 -39.5t-40 -16.5t-39 16.5t-16 39.5zM28 355v124h68v-124q0 -56 32.5 -92.5t95.5 -36.5t94.5 53.5t31.5 138.5v61h71v-479h-71v212
q-50 -50 -126 -50q-90 0 -143 51t-53 142z" />
    <glyph glyph-name="uni04F6" unicode="&#x4f6;" horiz-adv-x="478" 
d="M151 0h-70v698h391v-64h-314v-573h56v-245h-41z" />
    <glyph glyph-name="uni04F7" unicode="&#x4f7;" horiz-adv-x="375" 
d="M65 0v479h309v-63h-240v-355h57v-245h-40l-23 184h-63z" />
    <glyph glyph-name="uni04F8" unicode="&#x4f8;" horiz-adv-x="801" 
d="M432 790q0 23 16 39t39 16t39.5 -16t16.5 -39t-16.5 -39.5t-39.5 -16.5t-39 16.5t-16 39.5zM232 790q0 23 16 39t39 16t40 -16t17 -39t-17 -39.5t-40 -16.5t-39 16.5t-16 39.5zM711 631v-563h37v-68h-151v68h37v563h-37v67h151v-67h-37zM81 0v698h77v-288h146
q98 0 171.5 -53t73.5 -152t-72.5 -152t-170.5 -53h-225zM158 346v-283h146q69 0 115 37t46 105t-45.5 104.5t-115.5 36.5h-146z" />
    <glyph glyph-name="uni04F9" unicode="&#x4f9;" horiz-adv-x="643" 
d="M362 628q0 23 16 39t39 16t39.5 -16t16.5 -39t-16.5 -39.5t-39.5 -16.5t-39 16.5t-16 39.5zM162 628q0 23 16 39t39 16t40 -16t17 -39t-17 -39.5t-40 -16.5t-39 16.5t-16 39.5zM509 0v479h70v-479h-70zM65 0v479h69v-162h88q100 0 160.5 -41t60.5 -117q0 -77 -59.5 -118
t-159.5 -41h-159zM134 254v-191h88q68 0 106 24t38 72q0 47 -38 71t-106 24h-88z" />
    <glyph glyph-name="uni04FA" unicode="&#x4fa;" horiz-adv-x="480" 
d="M16 423v56h68v219h391v-64h-314v-155h140v-56h-140v-382h135v-132q0 -47 -27 -72.5t-69 -25.5q-49 0 -79 50l29 21q24 -34 46 -34q55 0 55 73v79h-167v423h-68z" />
    <glyph glyph-name="uni04FB" unicode="&#x4fb;" horiz-adv-x="382" 
d="M11 255v56h62v168h309v-63h-240v-105h106v-56h-106v-214h136v-132q0 -47 -27.5 -72.5t-69.5 -25.5q-49 0 -79 50l29 21q24 -34 46 -34q55 0 55 73v79h-159v255h-62z" />
    <glyph glyph-name="uni04FC" unicode="&#x4fc;" horiz-adv-x="561" 
d="M520 0h-119l-147 276l-146 -276h-86l189 357l-181 341h86l138 -261l139 261h86l-182 -341l169 -316h99v-132q0 -47 -27 -72.5t-69 -25.5q-49 0 -79 50l30 21q24 -34 45 -34q55 0 55 73v79z" />
    <glyph glyph-name="uni04FD" unicode="&#x4fd;" horiz-adv-x="506" 
d="M171 250l-143 229h82l102 -164l102 164h83l-143 -229l130 -209h114v-132q0 -47 -27.5 -72.5t-69.5 -25.5q-48 0 -78 50l29 21q24 -34 45 -34q56 0 56 73v79h-126l-115 183l-115 -183h-82z" />
    <glyph glyph-name="uni04FE" unicode="&#x4fe;" horiz-adv-x="506" 
d="M65 328v63h128l-164 307h86l138 -261l139 261h86l-164 -307h131v-63h-133l174 -328h-86l-147 276l-147 -276h-86l175 328h-130z" />
    <glyph glyph-name="uni04FF" unicode="&#x4ff;" horiz-adv-x="429" 
d="M36 225v64h114l-119 190h82l102 -164l102 164h83l-118 -190h104v-64h-114l141 -225h-83l-115 183l-115 -183h-82l141 225h-123z" />
    <glyph glyph-name="uniE000" horiz-adv-x="644" 
d="M341 736h-27q-61 0 -100 18.5t-39 48.5q0 20 22 45h40q-7 -19 -7 -28q0 -22 21 -30t63 -8h27q42 0 63 8t21 30q0 12 -6 28h40q21 -24 21 -45q0 -30 -39 -48.5t-100 -18.5z" />
    </font>
</defs>
</svg>
