<svg xmlns="http://www.w3.org/2000/svg"  viewBox="0 0 64 64" width="48px" height="48px"><linearGradient id="SVGID_1_" x1="32" x2="32" y1="-531.083" y2="-576.676" gradientTransform="matrix(1 0 0 -1 0 -522)" gradientUnits="userSpaceOnUse"><stop offset="0" stop-color="#1a6dff"/><stop offset="1" stop-color="#c822ff"/></linearGradient><path fill="url(#SVGID_1_)" d="M50,55H14c-2.8,0-5-2.2-5-5V14c0-2.8,2.2-5,5-5h36c2.8,0,5,2.2,5,5v36C55,52.8,52.8,55,50,55z M14,11	c-1.7,0-3,1.3-3,3v36c0,1.7,1.3,3,3,3h36c1.7,0,3-1.3,3-3V14c0-1.7-1.3-3-3-3H14z"/><linearGradient id="SVGID_2_" x1="32.127" x2="32.127" y1="18.745" y2="45.062" gradientUnits="userSpaceOnUse"><stop offset="0" stop-color="#6dc7ff"/><stop offset="1" stop-color="#e6abff"/></linearGradient><path fill="url(#SVGID_2_)" d="M42,18.4c1.1-0.3,2.2,0.4,2.4,1.4c0.4,1.5,0.4,3.2,0.4,4.7c0,6.4-4.2,14.7-8.7,20.7c-0.4,0.5-1,0.8-1.6,0.8	H24.4c-1,0-1.8-0.7-2-1.7l-3-21.9c-0.2-1.1,0.6-2.1,1.7-2.3l5.3-0.7c1.1-0.1,2.1,0.6,2.2,1.7l2.1,16.7c2.1-3.4,4.7-9.2,4.7-12.8	c0-1-0.2-1.9-0.4-2.7c-0.3-1.1,0.3-2.3,1.4-2.5L42,18.4z"/></svg>