<svg fill="#fff" xmlns="http://www.w3.org/2000/svg"  viewBox="0 0 50 50" width="50px" height="50px"><path d="M22.868 36.019c.037.004.08.01.132.019v3.112c0 4.002 0 6.016-.022 6.848-1.775-.057-5.526-1.518-6.758-2.357.705-.861 2.543-2.94 5.189-5.91L22.868 36.019M22.768 34.014c-.53 0-1.018.157-1.32.589l-1.561 1.831c-5.405 6.066-5.645 6.41-5.765 6.753-.12.229-.12.458-.12.687.12.343.24.572.48.916 1.225 1.274 6.333 3.21 8.601 3.21.177 0 .337-.012.476-.037.601-.115 1.081-.458 1.321-1.03C25 46.59 25 46.361 25 39.15c0 0 0-3.205 0-3.319 0-1.003-.442-1.335-1.282-1.678C23.406 34.068 23.08 34.014 22.768 34.014L22.768 34.014zM9.512 26.077c.36.14.938.371 1.71.68 1.149.46 2.865 1.147 5.45 2.171l2.25.898-3.185 1.012c-3.961 1.133-5.667 1.675-6.481 1.941-.073-.301-.138-.719-.171-.934C8.865 29.456 9.183 26.845 9.512 26.077M9.402 23.971c-.48 0-1.081.229-1.441.801-.841 1.145-1.102 4.797-.862 7.315.12.801.24 1.456.48 1.914.36.572.841.916 1.441.916.36 0 .088-.104 7.294-2.164l3.243-1.03c.841-.229 1.43-.803 1.43-1.718 0-.916-.448-1.673-1.289-2.016l-2.282-.916C9.61 23.981 9.763 23.971 9.402 23.971L9.402 23.971zM21.611 4c.047 0 .088.001.123.002.225 2.579 1.02 13.837 1.131 16.683l.002.048.004.048c.015.173.022.326.024.461-.073-.107-.152-.227-.237-.362C19.365 15.883 14.57 8.587 13.15 6.387 14.446 5.547 19.27 4 21.611 4M21.611 2C18.933 2 12.802 3.811 11.5 5.156c-.48.458-.601 1.145-.48 1.602.24.458 9.969 15.223 9.969 15.223 1.058 1.681 1.745 1.99 2.177 1.99.157 0 .28-.04.376-.071.36-.114 1.563-.545 1.323-3.292-.12-3.09-1.081-16.711-1.201-17.398-.24-.572-.601-1.03-1.321-1.145C22.144 2.021 21.897 2 21.611 2L21.611 2zM31.067 34.033c.032.006.068.013.108.024l3.043.967c2.114.657 3.614 1.116 4.685 1.443.884.27 1.564.478 1.968.609-.373 1.29-3.132 4.572-4.429 5.267-.117-.183-.273-.433-.451-.716-.596-.952-1.705-2.725-3.765-5.887L31.067 34.033M30.894 32.015c-.543 0-1.05.171-1.442.596-.389.422-.683 1.619-.202 2.306l1.321 1.946c4.324 6.639 4.345 6.98 4.706 7.209.281.268.604.379.944.379.24 0 .489-.056.738-.15 1.922-.687 5.681-5.238 5.921-7.069.12-.572-.12-1.145-.601-1.717-.24-.229-.74-.311-7.468-2.402l-3.078-.978C31.451 32.059 31.168 32.015 30.894 32.015L30.894 32.015zM36.861 18.075c1.134.809 3.579 4.168 4.085 5.588-.629.153-1.946.443-4.169.933l-3.632.801-.036.008-.036.009c-.696.181-1.217.295-1.602.379-.265.058-.478.105-.668.155-.01-.013-.022-.029-.035-.048-.008-.011-.015-.023-.021-.035l1.905-2.457C35.987 18.995 36.502 18.416 36.861 18.075M36.741 15.997c-.317 0-.618.085-.882.274-.75.738-.483.215-4.803 5.933l-2.04 2.63c-.48.572-.367 1.527.113 2.213.399.57.917.918 1.606.918.14 0 .286-.014.441-.044.36-.114 1.08-.229 2.4-.572 8.28-1.83 8.355-1.815 8.715-2.043.48-.343.72-.801.72-1.487 0-.114 0-.114 0-.114-.24-1.83-3.792-6.749-5.472-7.549C37.269 16.053 37 15.997 36.741 15.997L36.741 15.997z"/></svg>